solid OpenSCAD_Model
  facet normal -1 0 0
    outer loop
      vertex 0 4.01 0
      vertex 0 14.9 4.45
      vertex 0 14.9 0
    endloop
  endfacet
  facet normal -1 -0 0
    outer loop
      vertex 0 14.9 4.45
      vertex 0 4.01 0
      vertex 0 4.01 4.45
    endloop
  endfacet
  facet normal 1 0 0
    outer loop
      vertex 27.4 6.61435 3.90922
      vertex 27.4 8.9 4.45
      vertex 27.4 6.7 4.45
    endloop
  endfacet
  facet normal 1 0 0
    outer loop
      vertex 27.4 6.36578 3.42138
      vertex 27.4 8.9 4.45
      vertex 27.4 6.61435 3.90922
    endloop
  endfacet
  facet normal 1 0 0
    outer loop
      vertex 27.4 8.9 4.45
      vertex 27.4 6.36578 3.42138
      vertex 27.4 8.9 0
    endloop
  endfacet
  facet normal 1 -0 0
    outer loop
      vertex 27.4 5.97862 3.03422
      vertex 27.4 8.9 0
      vertex 27.4 6.36578 3.42138
    endloop
  endfacet
  facet normal 1 -0 0
    outer loop
      vertex 27.4 5.49078 2.78565
      vertex 27.4 8.9 0
      vertex 27.4 5.97862 3.03422
    endloop
  endfacet
  facet normal 1 -0 0
    outer loop
      vertex 27.4 4.95 2.7
      vertex 27.4 8.9 0
      vertex 27.4 5.49078 2.78565
    endloop
  endfacet
  facet normal 1 0 0
    outer loop
      vertex 27.4 1 0
      vertex 27.4 4.95 2.7
      vertex 27.4 4.40922 2.78565
    endloop
  endfacet
  facet normal 1 0 0
    outer loop
      vertex 27.4 1 0
      vertex 27.4 4.40922 2.78565
      vertex 27.4 3.92138 3.03422
    endloop
  endfacet
  facet normal 1 -0 0
    outer loop
      vertex 27.4 1 4.45
      vertex 27.4 3.28565 3.90922
      vertex 27.4 3.2 4.45
    endloop
  endfacet
  facet normal 1 0 0
    outer loop
      vertex 27.4 1 4.45
      vertex 27.4 3.53422 3.42138
      vertex 27.4 3.28565 3.90922
    endloop
  endfacet
  facet normal 1 0 0
    outer loop
      vertex 27.4 1 0
      vertex 27.4 3.53422 3.42138
      vertex 27.4 1 4.45
    endloop
  endfacet
  facet normal 1 0 0
    outer loop
      vertex 27.4 3.53422 3.42138
      vertex 27.4 1 0
      vertex 27.4 3.92138 3.03422
    endloop
  endfacet
  facet normal 1 0 0
    outer loop
      vertex 27.4 4.95 2.7
      vertex 27.4 1 0
      vertex 27.4 8.9 0
    endloop
  endfacet
  facet normal 0 1 -0
    outer loop
      vertex 27.4 8.9 0
      vertex 22.4 8.9 4.45
      vertex 27.4 8.9 4.45
    endloop
  endfacet
  facet normal 0 1 0
    outer loop
      vertex 22.4 8.9 4.45
      vertex 27.4 8.9 0
      vertex 22.4 8.9 0
    endloop
  endfacet
  facet normal 0 0 -1
    outer loop
      vertex 0.0655565 3.37626 0
      vertex 0 4 0
      vertex 0.00105096 4.01 0
    endloop
  endfacet
  facet normal 0 0 -1
    outer loop
      vertex 27.4 1 0
      vertex 22.4 8.9 0
      vertex 27.4 8.9 0
    endloop
  endfacet
  facet normal 0 0 -1
    outer loop
      vertex 22.4 8.9 0
      vertex 22.3989 11.89 0
      vertex 22.4 11.89 0
    endloop
  endfacet
  facet normal 0 0 -1
    outer loop
      vertex 19.39 14.8836 0
      vertex 22.3989 11.89 0
      vertex 22.4 8.9 0
    endloop
  endfacet
  facet normal 0 0 -1
    outer loop
      vertex 22.3989 11.89 0
      vertex 19.39 14.8836 0
      vertex 22.3344 12.5237 0
    endloop
  endfacet
  facet normal 0 0 -1
    outer loop
      vertex 22.3344 12.5237 0
      vertex 19.39 14.8836 0
      vertex 22.1406 13.1202 0
    endloop
  endfacet
  facet normal 0 0 -1
    outer loop
      vertex 22.1406 13.1202 0
      vertex 19.39 14.8836 0
      vertex 21.8271 13.6634 0
    endloop
  endfacet
  facet normal 0 0 -1
    outer loop
      vertex 21.8271 13.6634 0
      vertex 19.39 14.8836 0
      vertex 21.4074 14.1294 0
    endloop
  endfacet
  facet normal 0 0 -1
    outer loop
      vertex 21.4074 14.1294 0
      vertex 19.39 14.8836 0
      vertex 20.9 14.4981 0
    endloop
  endfacet
  facet normal 0 0 -1
    outer loop
      vertex 20.9 14.4981 0
      vertex 19.39 14.8836 0
      vertex 20.3271 14.7532 0
    endloop
  endfacet
  facet normal 0 0 -1
    outer loop
      vertex 20.3271 14.7532 0
      vertex 19.39 14.8836 0
      vertex 19.7136 14.8836 0
    endloop
  endfacet
  facet normal 0 0 -1
    outer loop
      vertex 3.01 1 0
      vertex 22.4 8.9 0
      vertex 27.4 1 0
    endloop
  endfacet
  facet normal 0 0 -1
    outer loop
      vertex 3.01 1.01643 0
      vertex 22.4 8.9 0
      vertex 3.01 1 0
    endloop
  endfacet
  facet normal -0 0 -1
    outer loop
      vertex 22.4 8.9 0
      vertex 3.01 1.01643 0
      vertex 19.39 14.8836 0
    endloop
  endfacet
  facet normal 0 0 -1
    outer loop
      vertex 0 14.9 0
      vertex 19.39 14.8836 0
      vertex 3.01 1.01643 0
    endloop
  endfacet
  facet normal 0 0 -1
    outer loop
      vertex 2.07295 1.14683 0
      vertex 3.01 1.01643 0
      vertex 2.68641 1.01643 0
    endloop
  endfacet
  facet normal 0 0 -1
    outer loop
      vertex 1.5 1.40192 0
      vertex 3.01 1.01643 0
      vertex 2.07295 1.14683 0
    endloop
  endfacet
  facet normal 0 0 -1
    outer loop
      vertex 3.01 1.01643 0
      vertex 1.5 1.40192 0
      vertex 0.00105096 4.01 0
    endloop
  endfacet
  facet normal 0 0 -1
    outer loop
      vertex 0.00105096 4.01 0
      vertex 1.5 1.40192 0
      vertex 0.992608 1.77057 0
    endloop
  endfacet
  facet normal 0 0 -1
    outer loop
      vertex 0.00105096 4.01 0
      vertex 0.992608 1.77057 0
      vertex 0.572948 2.23664 0
    endloop
  endfacet
  facet normal 0 0 -1
    outer loop
      vertex 0.00105096 4.01 0
      vertex 0.572948 2.23664 0
      vertex 0.259363 2.77979 0
    endloop
  endfacet
  facet normal 0 0 -1
    outer loop
      vertex 0.00105096 4.01 0
      vertex 0.259363 2.77979 0
      vertex 0.0655565 3.37626 0
    endloop
  endfacet
  facet normal 0 0 -1
    outer loop
      vertex 3.01 1.01643 0
      vertex 0.00105096 4.01 0
      vertex 0 14.9 0
    endloop
  endfacet
  facet normal 0 0 -1
    outer loop
      vertex 0 14.9 0
      vertex 0.00105096 4.01 0
      vertex 0 4.01 0
    endloop
  endfacet
  facet normal 0 0 -1
    outer loop
      vertex 19.39 14.8836 0
      vertex 0 14.9 0
      vertex 19.39 14.9 0
    endloop
  endfacet
  facet normal -0 0 -1
    outer loop
      vertex 22.4 11.9 0
      vertex 22.3989 11.89 0
      vertex 22.3344 12.5237 0
    endloop
  endfacet
  facet normal 0 -1 0
    outer loop
      vertex 3.01 1 0
      vertex 27.4 1 4.45
      vertex 3.01 1 4.45
    endloop
  endfacet
  facet normal 0 -1 -0
    outer loop
      vertex 27.4 1 4.45
      vertex 3.01 1 0
      vertex 27.4 1 0
    endloop
  endfacet
  facet normal 0 1 0
    outer loop
      vertex 19.39 14.9 4.45
      vertex 14.2 14.9 2.2
      vertex 14.2 14.9 4.45
    endloop
  endfacet
  facet normal 0 1 0
    outer loop
      vertex 0 14.9 0
      vertex 14.2 14.9 2.2
      vertex 19.39 14.9 0
    endloop
  endfacet
  facet normal 0 1 -0
    outer loop
      vertex 19.39 14.9 0
      vertex 14.2 14.9 2.2
      vertex 19.39 14.9 4.45
    endloop
  endfacet
  facet normal 0 1 -0
    outer loop
      vertex 2.2 14.9 2.2
      vertex 0 14.9 4.45
      vertex 2.2 14.9 4.45
    endloop
  endfacet
  facet normal 0 1 0
    outer loop
      vertex 2.2 14.9 2.2
      vertex 0 14.9 0
      vertex 0 14.9 4.45
    endloop
  endfacet
  facet normal 0 1 0
    outer loop
      vertex 14.2 14.9 2.2
      vertex 0 14.9 0
      vertex 2.2 14.9 2.2
    endloop
  endfacet
  facet normal 1 -0 0
    outer loop
      vertex 22.4 8.9 4.45
      vertex 22.4 11.89 0
      vertex 22.4 11.89 4.45
    endloop
  endfacet
  facet normal 1 0 0
    outer loop
      vertex 22.4 11.89 0
      vertex 22.4 8.9 4.45
      vertex 22.4 8.9 0
    endloop
  endfacet
  facet normal -1 0 0
    outer loop
      vertex 3.01 1 0
      vertex 3.01 1.01643 4.45
      vertex 3.01 1.01643 0
    endloop
  endfacet
  facet normal -1 -0 0
    outer loop
      vertex 3.01 1.01643 4.45
      vertex 3.01 1 0
      vertex 3.01 1 4.45
    endloop
  endfacet
  facet normal 0 -1 0
    outer loop
      vertex 0 4.01 0
      vertex 0.00105096 4.01 4.45
      vertex 0 4.01 4.45
    endloop
  endfacet
  facet normal 0 -1 -0
    outer loop
      vertex 0.00105096 4.01 4.45
      vertex 0 4.01 0
      vertex 0.00105096 4.01 0
    endloop
  endfacet
  facet normal -0.994522 0.104528 0
    outer loop
      vertex 0 4 0
      vertex 0.00105096 4.01 4.45
      vertex 0.00105096 4.01 0
    endloop
  endfacet
  facet normal -0.994522 0.104528 0
    outer loop
      vertex 0.00105096 4.01 4.45
      vertex 0 4 0
      vertex 0 4 4.45
    endloop
  endfacet
  facet normal -0.994522 -0.104527 0
    outer loop
      vertex 0.0655565 3.37626 0
      vertex 0 4 4.45
      vertex 0 4 0
    endloop
  endfacet
  facet normal -0.994522 -0.104527 0
    outer loop
      vertex 0 4 4.45
      vertex 0.0655565 3.37626 0
      vertex 0.0655565 3.37626 4.45
    endloop
  endfacet
  facet normal -0.406737 -0.913545 0
    outer loop
      vertex 1.5 1.40192 0
      vertex 2.07295 1.14683 4.45
      vertex 1.5 1.40192 4.45
    endloop
  endfacet
  facet normal -0.406737 -0.913545 -0
    outer loop
      vertex 2.07295 1.14683 4.45
      vertex 1.5 1.40192 0
      vertex 2.07295 1.14683 0
    endloop
  endfacet
  facet normal -0.743144 -0.669131 0
    outer loop
      vertex 0.992608 1.77057 0
      vertex 0.572948 2.23664 4.45
      vertex 0.572948 2.23664 0
    endloop
  endfacet
  facet normal -0.743144 -0.669131 0
    outer loop
      vertex 0.572948 2.23664 4.45
      vertex 0.992608 1.77057 0
      vertex 0.992608 1.77057 4.45
    endloop
  endfacet
  facet normal -0.587786 -0.809016 0
    outer loop
      vertex 0.992608 1.77057 0
      vertex 1.5 1.40192 4.45
      vertex 0.992608 1.77057 4.45
    endloop
  endfacet
  facet normal -0.587786 -0.809016 -0
    outer loop
      vertex 1.5 1.40192 4.45
      vertex 0.992608 1.77057 0
      vertex 1.5 1.40192 0
    endloop
  endfacet
  facet normal 0 -1 0
    outer loop
      vertex 2.68641 1.01643 0
      vertex 3.01 1.01643 4.45
      vertex 2.68641 1.01643 4.45
    endloop
  endfacet
  facet normal 0 -1 -0
    outer loop
      vertex 3.01 1.01643 4.45
      vertex 2.68641 1.01643 0
      vertex 3.01 1.01643 0
    endloop
  endfacet
  facet normal -0.866026 -0.5 0
    outer loop
      vertex 0.572948 2.23664 0
      vertex 0.259363 2.77979 4.45
      vertex 0.259363 2.77979 0
    endloop
  endfacet
  facet normal -0.866026 -0.5 0
    outer loop
      vertex 0.259363 2.77979 4.45
      vertex 0.572948 2.23664 0
      vertex 0.572948 2.23664 4.45
    endloop
  endfacet
  facet normal -0.951056 -0.309017 0
    outer loop
      vertex 0.259363 2.77979 0
      vertex 0.0655565 3.37626 4.45
      vertex 0.0655565 3.37626 0
    endloop
  endfacet
  facet normal -0.951056 -0.309017 0
    outer loop
      vertex 0.0655565 3.37626 4.45
      vertex 0.259363 2.77979 0
      vertex 0.259363 2.77979 4.45
    endloop
  endfacet
  facet normal -0.207911 -0.978148 0
    outer loop
      vertex 2.07295 1.14683 0
      vertex 2.68641 1.01643 4.45
      vertex 2.07295 1.14683 4.45
    endloop
  endfacet
  facet normal -0.207911 -0.978148 -0
    outer loop
      vertex 2.68641 1.01643 4.45
      vertex 2.07295 1.14683 0
      vertex 2.68641 1.01643 0
    endloop
  endfacet
  facet normal 1 -0 0
    outer loop
      vertex 19.39 14.8836 4.45
      vertex 19.39 14.9 0
      vertex 19.39 14.9 4.45
    endloop
  endfacet
  facet normal 1 0 0
    outer loop
      vertex 19.39 14.9 0
      vertex 19.39 14.8836 4.45
      vertex 19.39 14.8836 0
    endloop
  endfacet
  facet normal 0 1 -0
    outer loop
      vertex 22.4 11.89 0
      vertex 22.3989 11.89 4.45
      vertex 22.4 11.89 4.45
    endloop
  endfacet
  facet normal 0 1 0
    outer loop
      vertex 22.3989 11.89 4.45
      vertex 22.4 11.89 0
      vertex 22.3989 11.89 0
    endloop
  endfacet
  facet normal 0.994519 -0.104556 0
    outer loop
      vertex 22.3989 11.89 4.45
      vertex 22.4 11.9 0
      vertex 22.4 11.9 4.45
    endloop
  endfacet
  facet normal 0.994519 -0.104556 0
    outer loop
      vertex 22.4 11.9 0
      vertex 22.3989 11.89 4.45
      vertex 22.3989 11.89 0
    endloop
  endfacet
  facet normal 0.994522 0.104526 0
    outer loop
      vertex 22.4 11.9 4.45
      vertex 22.3344 12.5237 0
      vertex 22.3344 12.5237 4.45
    endloop
  endfacet
  facet normal 0.994522 0.104526 0
    outer loop
      vertex 22.3344 12.5237 0
      vertex 22.4 11.9 4.45
      vertex 22.4 11.9 0
    endloop
  endfacet
  facet normal 0.406736 0.913546 -0
    outer loop
      vertex 20.9 14.4981 0
      vertex 20.3271 14.7532 4.45
      vertex 20.9 14.4981 4.45
    endloop
  endfacet
  facet normal 0.406736 0.913546 0
    outer loop
      vertex 20.3271 14.7532 4.45
      vertex 20.9 14.4981 0
      vertex 20.3271 14.7532 0
    endloop
  endfacet
  facet normal 0.743145 0.66913 0
    outer loop
      vertex 21.8271 13.6634 4.45
      vertex 21.4074 14.1294 0
      vertex 21.4074 14.1294 4.45
    endloop
  endfacet
  facet normal 0.743145 0.66913 0
    outer loop
      vertex 21.4074 14.1294 0
      vertex 21.8271 13.6634 4.45
      vertex 21.8271 13.6634 0
    endloop
  endfacet
  facet normal 0.587786 0.809016 -0
    outer loop
      vertex 21.4074 14.1294 0
      vertex 20.9 14.4981 4.45
      vertex 21.4074 14.1294 4.45
    endloop
  endfacet
  facet normal 0.587786 0.809016 0
    outer loop
      vertex 20.9 14.4981 4.45
      vertex 21.4074 14.1294 0
      vertex 20.9 14.4981 0
    endloop
  endfacet
  facet normal 0 1 -0
    outer loop
      vertex 19.7136 14.8836 0
      vertex 19.39 14.8836 4.45
      vertex 19.7136 14.8836 4.45
    endloop
  endfacet
  facet normal 0 1 0
    outer loop
      vertex 19.39 14.8836 4.45
      vertex 19.7136 14.8836 0
      vertex 19.39 14.8836 0
    endloop
  endfacet
  facet normal 0.866026 0.5 0
    outer loop
      vertex 22.1406 13.1202 4.45
      vertex 21.8271 13.6634 0
      vertex 21.8271 13.6634 4.45
    endloop
  endfacet
  facet normal 0.866026 0.5 0
    outer loop
      vertex 21.8271 13.6634 0
      vertex 22.1406 13.1202 4.45
      vertex 22.1406 13.1202 0
    endloop
  endfacet
  facet normal 0.951056 0.309019 0
    outer loop
      vertex 22.3344 12.5237 4.45
      vertex 22.1406 13.1202 0
      vertex 22.1406 13.1202 4.45
    endloop
  endfacet
  facet normal 0.951056 0.309019 0
    outer loop
      vertex 22.1406 13.1202 0
      vertex 22.3344 12.5237 4.45
      vertex 22.3344 12.5237 0
    endloop
  endfacet
  facet normal 0.207912 0.978148 -0
    outer loop
      vertex 20.3271 14.7532 0
      vertex 19.7136 14.8836 4.45
      vertex 20.3271 14.7532 4.45
    endloop
  endfacet
  facet normal 0.207912 0.978148 0
    outer loop
      vertex 19.7136 14.8836 4.45
      vertex 20.3271 14.7532 0
      vertex 19.7136 14.8836 0
    endloop
  endfacet
  facet normal -0.987688 -0.156435 0
    outer loop
      vertex 20.9 11.9 0.4
      vertex 20.8266 12.3635 4.45
      vertex 20.8266 12.3635 0.4
    endloop
  endfacet
  facet normal -0.987688 -0.156435 0
    outer loop
      vertex 20.8266 12.3635 4.45
      vertex 20.9 11.9 0.4
      vertex 20.9 11.9 4.45
    endloop
  endfacet
  facet normal 0.156435 -0.987688 0
    outer loop
      vertex 18.9365 13.3266 0.4
      vertex 19.4 13.4 4.45
      vertex 18.9365 13.3266 4.45
    endloop
  endfacet
  facet normal 0.156435 -0.987688 0
    outer loop
      vertex 19.4 13.4 4.45
      vertex 18.9365 13.3266 0.4
      vertex 19.4 13.4 0.4
    endloop
  endfacet
  facet normal -0.156433 0.987688 0
    outer loop
      vertex 19.8635 10.4734 0.4
      vertex 19.4 10.4 4.45
      vertex 19.8635 10.4734 4.45
    endloop
  endfacet
  facet normal -0.156433 0.987688 0
    outer loop
      vertex 19.4 10.4 4.45
      vertex 19.8635 10.4734 0.4
      vertex 19.4 10.4 0.4
    endloop
  endfacet
  facet normal -0.707107 -0.707107 0
    outer loop
      vertex 20.6135 12.7817 0.4
      vertex 20.2817 13.1135 4.45
      vertex 20.2817 13.1135 0.4
    endloop
  endfacet
  facet normal -0.707107 -0.707107 0
    outer loop
      vertex 20.2817 13.1135 4.45
      vertex 20.6135 12.7817 0.4
      vertex 20.6135 12.7817 4.45
    endloop
  endfacet
  facet normal -0.891007 -0.45399 0
    outer loop
      vertex 20.8266 12.3635 0.4
      vertex 20.6135 12.7817 4.45
      vertex 20.6135 12.7817 0.4
    endloop
  endfacet
  facet normal -0.891007 -0.45399 0
    outer loop
      vertex 20.6135 12.7817 4.45
      vertex 20.8266 12.3635 0.4
      vertex 20.8266 12.3635 4.45
    endloop
  endfacet
  facet normal 0.891007 -0.45399 0
    outer loop
      vertex 17.9734 12.3635 4.45
      vertex 18.1865 12.7817 0.4
      vertex 18.1865 12.7817 4.45
    endloop
  endfacet
  facet normal 0.891007 -0.45399 0
    outer loop
      vertex 18.1865 12.7817 0.4
      vertex 17.9734 12.3635 4.45
      vertex 17.9734 12.3635 0.4
    endloop
  endfacet
  facet normal 0 0 1
    outer loop
      vertex 20.8266 12.3635 0.4
      vertex 20.8266 11.4365 0.4
      vertex 20.9 11.9 0.4
    endloop
  endfacet
  facet normal 0 0 1
    outer loop
      vertex 20.6135 12.7817 0.4
      vertex 20.8266 11.4365 0.4
      vertex 20.8266 12.3635 0.4
    endloop
  endfacet
  facet normal 0 0 1
    outer loop
      vertex 20.6135 12.7817 0.4
      vertex 20.6135 11.0183 0.4
      vertex 20.8266 11.4365 0.4
    endloop
  endfacet
  facet normal 0 0 1
    outer loop
      vertex 20.2817 13.1135 0.4
      vertex 20.6135 11.0183 0.4
      vertex 20.6135 12.7817 0.4
    endloop
  endfacet
  facet normal 0 0 1
    outer loop
      vertex 20.2817 13.1135 0.4
      vertex 20.2817 10.6865 0.4
      vertex 20.6135 11.0183 0.4
    endloop
  endfacet
  facet normal 0 0 1
    outer loop
      vertex 19.8635 13.3266 0.4
      vertex 20.2817 10.6865 0.4
      vertex 20.2817 13.1135 0.4
    endloop
  endfacet
  facet normal 0 0 1
    outer loop
      vertex 19.8635 13.3266 0.4
      vertex 19.8635 10.4734 0.4
      vertex 20.2817 10.6865 0.4
    endloop
  endfacet
  facet normal 0 0 1
    outer loop
      vertex 19.4 13.4 0.4
      vertex 19.8635 10.4734 0.4
      vertex 19.8635 13.3266 0.4
    endloop
  endfacet
  facet normal 0 0 1
    outer loop
      vertex 19.4 13.4 0.4
      vertex 19.4 10.4 0.4
      vertex 19.8635 10.4734 0.4
    endloop
  endfacet
  facet normal -0 0 1
    outer loop
      vertex 18.9365 13.3266 0.4
      vertex 19.4 10.4 0.4
      vertex 19.4 13.4 0.4
    endloop
  endfacet
  facet normal 0 0 1
    outer loop
      vertex 18.9365 13.3266 0.4
      vertex 18.9365 10.4734 0.4
      vertex 19.4 10.4 0.4
    endloop
  endfacet
  facet normal -0 0 1
    outer loop
      vertex 18.5183 13.1135 0.4
      vertex 18.9365 10.4734 0.4
      vertex 18.9365 13.3266 0.4
    endloop
  endfacet
  facet normal 0 0 1
    outer loop
      vertex 18.5183 13.1135 0.4
      vertex 18.5183 10.6865 0.4
      vertex 18.9365 10.4734 0.4
    endloop
  endfacet
  facet normal -0 0 1
    outer loop
      vertex 18.1865 12.7817 0.4
      vertex 18.5183 10.6865 0.4
      vertex 18.5183 13.1135 0.4
    endloop
  endfacet
  facet normal 0 0 1
    outer loop
      vertex 18.1865 12.7817 0.4
      vertex 18.1865 11.0183 0.4
      vertex 18.5183 10.6865 0.4
    endloop
  endfacet
  facet normal -0 0 1
    outer loop
      vertex 17.9734 12.3635 0.4
      vertex 18.1865 11.0183 0.4
      vertex 18.1865 12.7817 0.4
    endloop
  endfacet
  facet normal 0 0 1
    outer loop
      vertex 17.9734 12.3635 0.4
      vertex 17.9734 11.4365 0.4
      vertex 18.1865 11.0183 0.4
    endloop
  endfacet
  facet normal 0 -0 1
    outer loop
      vertex 17.9734 11.4365 0.4
      vertex 17.9734 12.3635 0.4
      vertex 17.9 11.9 0.4
    endloop
  endfacet
  facet normal 0.987688 -0.156435 0
    outer loop
      vertex 17.9 11.9 4.45
      vertex 17.9734 12.3635 0.4
      vertex 17.9734 12.3635 4.45
    endloop
  endfacet
  facet normal 0.987688 -0.156435 0
    outer loop
      vertex 17.9734 12.3635 0.4
      vertex 17.9 11.9 4.45
      vertex 17.9 11.9 0.4
    endloop
  endfacet
  facet normal 0.45399 -0.891007 0
    outer loop
      vertex 18.5183 13.1135 0.4
      vertex 18.9365 13.3266 4.45
      vertex 18.5183 13.1135 4.45
    endloop
  endfacet
  facet normal 0.45399 -0.891007 0
    outer loop
      vertex 18.9365 13.3266 4.45
      vertex 18.5183 13.1135 0.4
      vertex 18.9365 13.3266 0.4
    endloop
  endfacet
  facet normal 0.156433 0.987688 -0
    outer loop
      vertex 19.4 10.4 0.4
      vertex 18.9365 10.4734 4.45
      vertex 19.4 10.4 4.45
    endloop
  endfacet
  facet normal 0.156433 0.987688 0
    outer loop
      vertex 18.9365 10.4734 4.45
      vertex 19.4 10.4 0.4
      vertex 18.9365 10.4734 0.4
    endloop
  endfacet
  facet normal 0.891007 0.45399 0
    outer loop
      vertex 18.1865 11.0183 4.45
      vertex 17.9734 11.4365 0.4
      vertex 17.9734 11.4365 4.45
    endloop
  endfacet
  facet normal 0.891007 0.45399 0
    outer loop
      vertex 17.9734 11.4365 0.4
      vertex 18.1865 11.0183 4.45
      vertex 18.1865 11.0183 0.4
    endloop
  endfacet
  facet normal -0.156435 -0.987688 0
    outer loop
      vertex 19.4 13.4 0.4
      vertex 19.8635 13.3266 4.45
      vertex 19.4 13.4 4.45
    endloop
  endfacet
  facet normal -0.156435 -0.987688 -0
    outer loop
      vertex 19.8635 13.3266 4.45
      vertex 19.4 13.4 0.4
      vertex 19.8635 13.3266 0.4
    endloop
  endfacet
  facet normal -0.45399 -0.891007 0
    outer loop
      vertex 19.8635 13.3266 0.4
      vertex 20.2817 13.1135 4.45
      vertex 19.8635 13.3266 4.45
    endloop
  endfacet
  facet normal -0.45399 -0.891007 -0
    outer loop
      vertex 20.2817 13.1135 4.45
      vertex 19.8635 13.3266 0.4
      vertex 20.2817 13.1135 0.4
    endloop
  endfacet
  facet normal 0.987688 0.156435 0
    outer loop
      vertex 17.9734 11.4365 4.45
      vertex 17.9 11.9 0.4
      vertex 17.9 11.9 4.45
    endloop
  endfacet
  facet normal 0.987688 0.156435 0
    outer loop
      vertex 17.9 11.9 0.4
      vertex 17.9734 11.4365 4.45
      vertex 17.9734 11.4365 0.4
    endloop
  endfacet
  facet normal 0.707107 -0.707107 0
    outer loop
      vertex 18.1865 12.7817 4.45
      vertex 18.5183 13.1135 0.4
      vertex 18.5183 13.1135 4.45
    endloop
  endfacet
  facet normal 0.707107 -0.707107 0
    outer loop
      vertex 18.5183 13.1135 0.4
      vertex 18.1865 12.7817 4.45
      vertex 18.1865 12.7817 0.4
    endloop
  endfacet
  facet normal -0.707107 0.707107 0
    outer loop
      vertex 20.2817 10.6865 0.4
      vertex 20.6135 11.0183 4.45
      vertex 20.6135 11.0183 0.4
    endloop
  endfacet
  facet normal -0.707107 0.707107 0
    outer loop
      vertex 20.6135 11.0183 4.45
      vertex 20.2817 10.6865 0.4
      vertex 20.2817 10.6865 4.45
    endloop
  endfacet
  facet normal -0.453991 0.891006 0
    outer loop
      vertex 20.2817 10.6865 0.4
      vertex 19.8635 10.4734 4.45
      vertex 20.2817 10.6865 4.45
    endloop
  endfacet
  facet normal -0.453991 0.891006 0
    outer loop
      vertex 19.8635 10.4734 4.45
      vertex 20.2817 10.6865 0.4
      vertex 19.8635 10.4734 0.4
    endloop
  endfacet
  facet normal -0.891007 0.45399 0
    outer loop
      vertex 20.6135 11.0183 0.4
      vertex 20.8266 11.4365 4.45
      vertex 20.8266 11.4365 0.4
    endloop
  endfacet
  facet normal -0.891007 0.45399 0
    outer loop
      vertex 20.8266 11.4365 4.45
      vertex 20.6135 11.0183 0.4
      vertex 20.6135 11.0183 4.45
    endloop
  endfacet
  facet normal 0.707107 0.707107 0
    outer loop
      vertex 18.5183 10.6865 4.45
      vertex 18.1865 11.0183 0.4
      vertex 18.1865 11.0183 4.45
    endloop
  endfacet
  facet normal 0.707107 0.707107 0
    outer loop
      vertex 18.1865 11.0183 0.4
      vertex 18.5183 10.6865 4.45
      vertex 18.5183 10.6865 0.4
    endloop
  endfacet
  facet normal -0.987688 0.156435 0
    outer loop
      vertex 20.8266 11.4365 0.4
      vertex 20.9 11.9 4.45
      vertex 20.9 11.9 0.4
    endloop
  endfacet
  facet normal -0.987688 0.156435 0
    outer loop
      vertex 20.9 11.9 4.45
      vertex 20.8266 11.4365 0.4
      vertex 20.8266 11.4365 4.45
    endloop
  endfacet
  facet normal 0.453991 0.891006 -0
    outer loop
      vertex 18.9365 10.4734 0.4
      vertex 18.5183 10.6865 4.45
      vertex 18.9365 10.4734 4.45
    endloop
  endfacet
  facet normal 0.453991 0.891006 0
    outer loop
      vertex 18.5183 10.6865 4.45
      vertex 18.9365 10.4734 0.4
      vertex 18.5183 10.6865 0.4
    endloop
  endfacet
  facet normal 1 0 0
    outer loop
      vertex 2.2 14.9 4.45
      vertex 2.2 4.95 2.7
      vertex 2.2 14.9 2.2
    endloop
  endfacet
  facet normal 1 -0 0
    outer loop
      vertex 2.2 3.2 4.45
      vertex 2.2 4.95 2.7
      vertex 2.2 14.9 4.45
    endloop
  endfacet
  facet normal 1 0 0
    outer loop
      vertex 2.2 4.95 2.7
      vertex 2.2 3.2 4.45
      vertex 2.2 4.40922 2.78565
    endloop
  endfacet
  facet normal 1 0 0
    outer loop
      vertex 2.2 4.40922 2.78565
      vertex 2.2 3.2 4.45
      vertex 2.2 3.92138 3.03422
    endloop
  endfacet
  facet normal 1 0 0
    outer loop
      vertex 2.2 3.92138 3.03422
      vertex 2.2 3.2 4.45
      vertex 2.2 3.53422 3.42138
    endloop
  endfacet
  facet normal 1 0 0
    outer loop
      vertex 2.2 3.53422 3.42138
      vertex 2.2 3.2 4.45
      vertex 2.2 3.28565 3.90922
    endloop
  endfacet
  facet normal 1 0 0
    outer loop
      vertex 2.2 14.9 2.2
      vertex 2.2 4.95 2.7
      vertex 2.2 4.95 2.2
    endloop
  endfacet
  facet normal -1 0 0
    outer loop
      vertex 14.2 6.61435 3.90922
      vertex 14.2 14.9 4.45
      vertex 14.2 14.9 2.2
    endloop
  endfacet
  facet normal -1 -0 0
    outer loop
      vertex 14.2 14.9 4.45
      vertex 14.2 6.61435 3.90922
      vertex 14.2 6.7 4.45
    endloop
  endfacet
  facet normal -1 0 0
    outer loop
      vertex 14.2 14.9 2.2
      vertex 14.2 6.36578 3.42138
      vertex 14.2 6.61435 3.90922
    endloop
  endfacet
  facet normal -1 0 0
    outer loop
      vertex 14.2 14.9 2.2
      vertex 14.2 5.97862 3.03422
      vertex 14.2 6.36578 3.42138
    endloop
  endfacet
  facet normal -1 0 0
    outer loop
      vertex 14.2 4.95 2.2
      vertex 14.2 5.97862 3.03422
      vertex 14.2 14.9 2.2
    endloop
  endfacet
  facet normal -1 0 0
    outer loop
      vertex 14.2 5.97862 3.03422
      vertex 14.2 4.95 2.2
      vertex 14.2 5.49078 2.78565
    endloop
  endfacet
  facet normal -1 0 0
    outer loop
      vertex 14.2 5.49078 2.78565
      vertex 14.2 4.95 2.2
      vertex 14.2 4.95 2.7
    endloop
  endfacet
  facet normal -0 0 1
    outer loop
      vertex 2.2 14.9 2.2
      vertex 14.2 4.95 2.2
      vertex 14.2 14.9 2.2
    endloop
  endfacet
  facet normal 0 0 1
    outer loop
      vertex 14.2 4.95 2.2
      vertex 2.2 14.9 2.2
      vertex 2.2 4.95 2.2
    endloop
  endfacet
  facet normal 0 1 -0
    outer loop
      vertex 14.2 4.95 2.2
      vertex 2.2 4.95 2.7
      vertex 14.2 4.95 2.7
    endloop
  endfacet
  facet normal 0 1 0
    outer loop
      vertex 2.2 4.95 2.7
      vertex 14.2 4.95 2.2
      vertex 2.2 4.95 2.2
    endloop
  endfacet
  facet normal 0 -0.156433 0.987688
    outer loop
      vertex 14.2 5.49078 2.78565
      vertex 27.4 4.95 2.7
      vertex 27.4 5.49078 2.78565
    endloop
  endfacet
  facet normal 0 -0.156433 0.987688
    outer loop
      vertex 27.4 4.95 2.7
      vertex 14.2 5.49078 2.78565
      vertex 14.2 4.95 2.7
    endloop
  endfacet
  facet normal 0 0.987689 0.156433
    outer loop
      vertex 27.4 3.28565 3.90922
      vertex 2.2 3.2 4.45
      vertex 27.4 3.2 4.45
    endloop
  endfacet
  facet normal 0 0.987689 0.156433
    outer loop
      vertex 2.2 3.2 4.45
      vertex 27.4 3.28565 3.90922
      vertex 2.2 3.28565 3.90922
    endloop
  endfacet
  facet normal 0 0.891006 0.453991
    outer loop
      vertex 27.4 3.53422 3.42138
      vertex 2.2 3.28565 3.90922
      vertex 27.4 3.28565 3.90922
    endloop
  endfacet
  facet normal 0 0.891006 0.453991
    outer loop
      vertex 2.2 3.28565 3.90922
      vertex 27.4 3.53422 3.42138
      vertex 2.2 3.53422 3.42138
    endloop
  endfacet
  facet normal 0 -0.453991 0.891006
    outer loop
      vertex 14.2 5.97862 3.03422
      vertex 27.4 5.49078 2.78565
      vertex 27.4 5.97862 3.03422
    endloop
  endfacet
  facet normal 0 -0.453991 0.891006
    outer loop
      vertex 27.4 5.49078 2.78565
      vertex 14.2 5.97862 3.03422
      vertex 14.2 5.49078 2.78565
    endloop
  endfacet
  facet normal 0 -0.891006 0.453991
    outer loop
      vertex 14.2 6.36578 3.42138
      vertex 27.4 6.61435 3.90922
      vertex 14.2 6.61435 3.90922
    endloop
  endfacet
  facet normal 0 -0.891006 0.453991
    outer loop
      vertex 27.4 6.61435 3.90922
      vertex 14.2 6.36578 3.42138
      vertex 27.4 6.36578 3.42138
    endloop
  endfacet
  facet normal -0 0.156433 0.987689
    outer loop
      vertex 14.2 4.95 2.7
      vertex 27.4 4.40922 2.78565
      vertex 27.4 4.95 2.7
    endloop
  endfacet
  facet normal 0 0.156433 0.987689
    outer loop
      vertex 2.2 4.40922 2.78565
      vertex 14.2 4.95 2.7
      vertex 2.2 4.95 2.7
    endloop
  endfacet
  facet normal 0 0.156433 0.987689
    outer loop
      vertex 14.2 4.95 2.7
      vertex 2.2 4.40922 2.78565
      vertex 27.4 4.40922 2.78565
    endloop
  endfacet
  facet normal 0 -0.707107 0.707107
    outer loop
      vertex 14.2 5.97862 3.03422
      vertex 27.4 6.36578 3.42138
      vertex 14.2 6.36578 3.42138
    endloop
  endfacet
  facet normal 0 -0.707107 0.707107
    outer loop
      vertex 27.4 6.36578 3.42138
      vertex 14.2 5.97862 3.03422
      vertex 27.4 5.97862 3.03422
    endloop
  endfacet
  facet normal 0 -0.987688 0.156435
    outer loop
      vertex 14.2 6.61435 3.90922
      vertex 27.4 6.7 4.45
      vertex 14.2 6.7 4.45
    endloop
  endfacet
  facet normal 0 -0.987688 0.156435
    outer loop
      vertex 27.4 6.7 4.45
      vertex 14.2 6.61435 3.90922
      vertex 27.4 6.61435 3.90922
    endloop
  endfacet
  facet normal 0 0.707107 0.707107
    outer loop
      vertex 27.4 3.92138 3.03422
      vertex 2.2 3.53422 3.42138
      vertex 27.4 3.53422 3.42138
    endloop
  endfacet
  facet normal 0 0.707107 0.707107
    outer loop
      vertex 2.2 3.53422 3.42138
      vertex 27.4 3.92138 3.03422
      vertex 2.2 3.92138 3.03422
    endloop
  endfacet
  facet normal -0 0.453991 0.891006
    outer loop
      vertex 2.2 4.40922 2.78565
      vertex 27.4 3.92138 3.03422
      vertex 27.4 4.40922 2.78565
    endloop
  endfacet
  facet normal 0 0.453991 0.891006
    outer loop
      vertex 27.4 3.92138 3.03422
      vertex 2.2 4.40922 2.78565
      vertex 2.2 3.92138 3.03422
    endloop
  endfacet
  facet normal -0 0 1
    outer loop
      vertex 0.00105096 4.01 4.45
      vertex 2.2 3.2 4.45
      vertex 2.2 14.9 4.45
    endloop
  endfacet
  facet normal -0 0 1
    outer loop
      vertex 0 4 4.45
      vertex 2.2 3.2 4.45
      vertex 0.00105096 4.01 4.45
    endloop
  endfacet
  facet normal 0 0 1
    outer loop
      vertex 2.2 3.2 4.45
      vertex 1.5 1.40192 4.45
      vertex 2.07295 1.14683 4.45
    endloop
  endfacet
  facet normal 0 0 1
    outer loop
      vertex 2.2 3.2 4.45
      vertex 0.992608 1.77057 4.45
      vertex 1.5 1.40192 4.45
    endloop
  endfacet
  facet normal 0 0 1
    outer loop
      vertex 2.2 3.2 4.45
      vertex 0.572948 2.23664 4.45
      vertex 0.992608 1.77057 4.45
    endloop
  endfacet
  facet normal 0 0 1
    outer loop
      vertex 2.2 3.2 4.45
      vertex 0.259363 2.77979 4.45
      vertex 0.572948 2.23664 4.45
    endloop
  endfacet
  facet normal 0 0 1
    outer loop
      vertex 2.2 3.2 4.45
      vertex 0.0655565 3.37626 4.45
      vertex 0.259363 2.77979 4.45
    endloop
  endfacet
  facet normal -0 0 1
    outer loop
      vertex 0 14.9 4.45
      vertex 0.00105096 4.01 4.45
      vertex 2.2 14.9 4.45
    endloop
  endfacet
  facet normal 0 0 1
    outer loop
      vertex 0.00105096 4.01 4.45
      vertex 0 14.9 4.45
      vertex 0 4.01 4.45
    endloop
  endfacet
  facet normal 0 0 1
    outer loop
      vertex 27.4 3.2 4.45
      vertex 3.01 1.01643 4.45
      vertex 27.4 1 4.45
    endloop
  endfacet
  facet normal -0 0 1
    outer loop
      vertex 2.2 3.2 4.45
      vertex 3.01 1.01643 4.45
      vertex 27.4 3.2 4.45
    endloop
  endfacet
  facet normal 0 0 1
    outer loop
      vertex 3.01 1.01643 4.45
      vertex 2.2 3.2 4.45
      vertex 2.68641 1.01643 4.45
    endloop
  endfacet
  facet normal 0 0 1
    outer loop
      vertex 2.68641 1.01643 4.45
      vertex 2.2 3.2 4.45
      vertex 2.07295 1.14683 4.45
    endloop
  endfacet
  facet normal 0 0 1
    outer loop
      vertex 27.4 1 4.45
      vertex 3.01 1.01643 4.45
      vertex 3.01 1 4.45
    endloop
  endfacet
  facet normal 0 0 1
    outer loop
      vertex 2.2 3.2 4.45
      vertex 0 4 4.45
      vertex 0.0655565 3.37626 4.45
    endloop
  endfacet
  facet normal 0 0 1
    outer loop
      vertex 20.9 11.9 4.45
      vertex 22.4 11.9 4.45
      vertex 22.3344 12.5237 4.45
    endloop
  endfacet
  facet normal 0 0 1
    outer loop
      vertex 22.4 11.89 4.45
      vertex 22.3989 11.89 4.45
      vertex 22.4 8.9 4.45
    endloop
  endfacet
  facet normal -0 0 1
    outer loop
      vertex 22.4 8.9 4.45
      vertex 27.4 6.7 4.45
      vertex 27.4 8.9 4.45
    endloop
  endfacet
  facet normal 0 0 1
    outer loop
      vertex 22.4 11.9 4.45
      vertex 20.9 11.9 4.45
      vertex 22.3989 11.89 4.45
    endloop
  endfacet
  facet normal 0 0 1
    outer loop
      vertex 20.8266 12.3635 4.45
      vertex 22.3344 12.5237 4.45
      vertex 22.1406 13.1202 4.45
    endloop
  endfacet
  facet normal 0 0 1
    outer loop
      vertex 20.6135 12.7817 4.45
      vertex 22.1406 13.1202 4.45
      vertex 21.8271 13.6634 4.45
    endloop
  endfacet
  facet normal 0 0 1
    outer loop
      vertex 20.6135 12.7817 4.45
      vertex 21.8271 13.6634 4.45
      vertex 21.4074 14.1294 4.45
    endloop
  endfacet
  facet normal 0 0 1
    outer loop
      vertex 20.2817 13.1135 4.45
      vertex 21.4074 14.1294 4.45
      vertex 20.9 14.4981 4.45
    endloop
  endfacet
  facet normal 0 0 1
    outer loop
      vertex 22.3344 12.5237 4.45
      vertex 20.8266 12.3635 4.45
      vertex 20.9 11.9 4.45
    endloop
  endfacet
  facet normal 0 0 1
    outer loop
      vertex 20.6135 11.0183 4.45
      vertex 22.3989 11.89 4.45
      vertex 20.8266 11.4365 4.45
    endloop
  endfacet
  facet normal 0 0 1
    outer loop
      vertex 22.3989 11.89 4.45
      vertex 20.6135 11.0183 4.45
      vertex 22.4 8.9 4.45
    endloop
  endfacet
  facet normal -0 0 1
    outer loop
      vertex 20.2817 10.6865 4.45
      vertex 22.4 8.9 4.45
      vertex 20.6135 11.0183 4.45
    endloop
  endfacet
  facet normal -0 0 1
    outer loop
      vertex 19.8635 10.4734 4.45
      vertex 22.4 8.9 4.45
      vertex 20.2817 10.6865 4.45
    endloop
  endfacet
  facet normal -0 0 1
    outer loop
      vertex 19.4 10.4 4.45
      vertex 22.4 8.9 4.45
      vertex 19.8635 10.4734 4.45
    endloop
  endfacet
  facet normal 0 0 1
    outer loop
      vertex 14.2 6.7 4.45
      vertex 19.4 10.4 4.45
      vertex 18.9365 10.4734 4.45
    endloop
  endfacet
  facet normal 0 0 1
    outer loop
      vertex 14.2 14.9 4.45
      vertex 17.9734 11.4365 4.45
      vertex 17.9 11.9 4.45
    endloop
  endfacet
  facet normal 0 0 1
    outer loop
      vertex 14.2 6.7 4.45
      vertex 17.9734 11.4365 4.45
      vertex 14.2 14.9 4.45
    endloop
  endfacet
  facet normal 0 0 1
    outer loop
      vertex 17.9734 11.4365 4.45
      vertex 14.2 6.7 4.45
      vertex 18.1865 11.0183 4.45
    endloop
  endfacet
  facet normal 0 0 1
    outer loop
      vertex 22.4 8.9 4.45
      vertex 14.2 6.7 4.45
      vertex 27.4 6.7 4.45
    endloop
  endfacet
  facet normal 0 0 1
    outer loop
      vertex 19.4 10.4 4.45
      vertex 14.2 6.7 4.45
      vertex 22.4 8.9 4.45
    endloop
  endfacet
  facet normal 0 0 1
    outer loop
      vertex 18.5183 10.6865 4.45
      vertex 14.2 6.7 4.45
      vertex 18.9365 10.4734 4.45
    endloop
  endfacet
  facet normal 0 0 1
    outer loop
      vertex 18.1865 11.0183 4.45
      vertex 14.2 6.7 4.45
      vertex 18.5183 10.6865 4.45
    endloop
  endfacet
  facet normal 0 0 1
    outer loop
      vertex 18.5183 13.1135 4.45
      vertex 19.39 14.8836 4.45
      vertex 19.39 14.9 4.45
    endloop
  endfacet
  facet normal 0 0 1
    outer loop
      vertex 19.39 14.8836 4.45
      vertex 18.5183 13.1135 4.45
      vertex 18.9365 13.3266 4.45
    endloop
  endfacet
  facet normal -0 0 1
    outer loop
      vertex 14.2 14.9 4.45
      vertex 18.5183 13.1135 4.45
      vertex 19.39 14.9 4.45
    endloop
  endfacet
  facet normal 0 0 1
    outer loop
      vertex 17.9734 12.3635 4.45
      vertex 14.2 14.9 4.45
      vertex 17.9 11.9 4.45
    endloop
  endfacet
  facet normal 0 0 1
    outer loop
      vertex 18.1865 12.7817 4.45
      vertex 14.2 14.9 4.45
      vertex 17.9734 12.3635 4.45
    endloop
  endfacet
  facet normal 0 0 1
    outer loop
      vertex 18.5183 13.1135 4.45
      vertex 14.2 14.9 4.45
      vertex 18.1865 12.7817 4.45
    endloop
  endfacet
  facet normal 0 0 1
    outer loop
      vertex 22.3989 11.89 4.45
      vertex 20.9 11.9 4.45
      vertex 20.8266 11.4365 4.45
    endloop
  endfacet
  facet normal 0 0 1
    outer loop
      vertex 22.1406 13.1202 4.45
      vertex 20.6135 12.7817 4.45
      vertex 20.8266 12.3635 4.45
    endloop
  endfacet
  facet normal 0 0 1
    outer loop
      vertex 19.8635 13.3266 4.45
      vertex 20.9 14.4981 4.45
      vertex 20.3271 14.7532 4.45
    endloop
  endfacet
  facet normal 0 0 1
    outer loop
      vertex 21.4074 14.1294 4.45
      vertex 20.2817 13.1135 4.45
      vertex 20.6135 12.7817 4.45
    endloop
  endfacet
  facet normal 0 0 1
    outer loop
      vertex 20.9 14.4981 4.45
      vertex 19.8635 13.3266 4.45
      vertex 20.2817 13.1135 4.45
    endloop
  endfacet
  facet normal 0 0 1
    outer loop
      vertex 19.7136 14.8836 4.45
      vertex 19.8635 13.3266 4.45
      vertex 20.3271 14.7532 4.45
    endloop
  endfacet
  facet normal 0 0 1
    outer loop
      vertex 19.7136 14.8836 4.45
      vertex 19.4 13.4 4.45
      vertex 19.8635 13.3266 4.45
    endloop
  endfacet
  facet normal -0 0 1
    outer loop
      vertex 19.39 14.8836 4.45
      vertex 19.4 13.4 4.45
      vertex 19.7136 14.8836 4.45
    endloop
  endfacet
  facet normal 0 0 1
    outer loop
      vertex 19.4 13.4 4.45
      vertex 19.39 14.8836 4.45
      vertex 18.9365 13.3266 4.45
    endloop
  endfacet
  facet normal -1 0 0
    outer loop
      vertex 0 -14.9 3.8147e-07
      vertex 0 -4.01 4.45
      vertex 0 -4.01 3.8147e-07
    endloop
  endfacet
  facet normal -1 -0 0
    outer loop
      vertex 0 -4.01 4.45
      vertex 0 -14.9 3.8147e-07
      vertex 0 -14.9 4.45
    endloop
  endfacet
  facet normal 0 0 -1
    outer loop
      vertex 0 -14.9 3.8147e-07
      vertex 16.4 -8.9 3.8147e-07
      vertex 16.4 -14.9 3.8147e-07
    endloop
  endfacet
  facet normal 0 0 -1
    outer loop
      vertex 16.4 -8.9 3.8147e-07
      vertex 0.00105096 -4.01 3.8147e-07
      vertex 3.01 -1.01643 3.8147e-07
    endloop
  endfacet
  facet normal 0 -0 -1
    outer loop
      vertex 1.5 -1.40192 3.8147e-07
      vertex 3.01 -1.01643 3.8147e-07
      vertex 0.00105096 -4.01 3.8147e-07
    endloop
  endfacet
  facet normal -0 0 -1
    outer loop
      vertex 3.01 -1.01643 3.8147e-07
      vertex 2.07295 -1.14683 3.8147e-07
      vertex 2.68641 -1.01643 3.8147e-07
    endloop
  endfacet
  facet normal 0 0 -1
    outer loop
      vertex 3.01 -1.01643 3.8147e-07
      vertex 1.5 -1.40192 3.8147e-07
      vertex 2.07295 -1.14683 3.8147e-07
    endloop
  endfacet
  facet normal 0 0 -1
    outer loop
      vertex 1.5 -1.40192 3.8147e-07
      vertex 0.00105096 -4.01 3.8147e-07
      vertex 0.992608 -1.77057 3.8147e-07
    endloop
  endfacet
  facet normal 0 0 -1
    outer loop
      vertex 0.992608 -1.77057 3.8147e-07
      vertex 0.00105096 -4.01 3.8147e-07
      vertex 0.572948 -2.23664 3.8147e-07
    endloop
  endfacet
  facet normal 0 0 -1
    outer loop
      vertex 0.572948 -2.23664 3.8147e-07
      vertex 0.00105096 -4.01 3.8147e-07
      vertex 0.259363 -2.77979 3.8147e-07
    endloop
  endfacet
  facet normal 0 0 -1
    outer loop
      vertex 0.259363 -2.77979 3.8147e-07
      vertex 0.00105096 -4.01 3.8147e-07
      vertex 0.0655565 -3.37626 3.8147e-07
    endloop
  endfacet
  facet normal -0 0 -1
    outer loop
      vertex 16.4 -8.9 3.8147e-07
      vertex 0 -14.9 3.8147e-07
      vertex 0.00105096 -4.01 3.8147e-07
    endloop
  endfacet
  facet normal -0 0 -1
    outer loop
      vertex 0.00105096 -4.01 3.8147e-07
      vertex 0 -14.9 3.8147e-07
      vertex 0 -4.01 3.8147e-07
    endloop
  endfacet
  facet normal 0 0 -1
    outer loop
      vertex 16.4 -8.9 3.8147e-07
      vertex 27.4 -1 3.8147e-07
      vertex 27.4 -8.9 3.8147e-07
    endloop
  endfacet
  facet normal 0 0 -1
    outer loop
      vertex 3.01 -1 3.8147e-07
      vertex 16.4 -8.9 3.8147e-07
      vertex 3.01 -1.01643 3.8147e-07
    endloop
  endfacet
  facet normal 0 0 -1
    outer loop
      vertex 16.4 -8.9 3.8147e-07
      vertex 3.01 -1 3.8147e-07
      vertex 27.4 -1 3.8147e-07
    endloop
  endfacet
  facet normal 0 0 -1
    outer loop
      vertex 0.0655565 -3.37626 3.8147e-07
      vertex 0.00105096 -4.01 3.8147e-07
      vertex 0 -4 3.8147e-07
    endloop
  endfacet
  facet normal 1 0 0
    outer loop
      vertex 27.4 -3.28565 3.90922
      vertex 27.4 -1 4.45
      vertex 27.4 -3.2 4.45
    endloop
  endfacet
  facet normal 1 0 0
    outer loop
      vertex 27.4 -3.53422 3.42138
      vertex 27.4 -1 4.45
      vertex 27.4 -3.28565 3.90922
    endloop
  endfacet
  facet normal 1 0 0
    outer loop
      vertex 27.4 -1 4.45
      vertex 27.4 -3.53422 3.42138
      vertex 27.4 -1 3.8147e-07
    endloop
  endfacet
  facet normal 1 -0 0
    outer loop
      vertex 27.4 -3.92138 3.03422
      vertex 27.4 -1 3.8147e-07
      vertex 27.4 -3.53422 3.42138
    endloop
  endfacet
  facet normal 1 -0 0
    outer loop
      vertex 27.4 -4.40922 2.78565
      vertex 27.4 -1 3.8147e-07
      vertex 27.4 -3.92138 3.03422
    endloop
  endfacet
  facet normal 1 -0 0
    outer loop
      vertex 27.4 -4.95 2.7
      vertex 27.4 -1 3.8147e-07
      vertex 27.4 -4.40922 2.78565
    endloop
  endfacet
  facet normal 1 0 0
    outer loop
      vertex 27.4 -8.9 3.8147e-07
      vertex 27.4 -4.95 2.7
      vertex 27.4 -5.49078 2.78565
    endloop
  endfacet
  facet normal 1 0 0
    outer loop
      vertex 27.4 -8.9 3.8147e-07
      vertex 27.4 -5.49078 2.78565
      vertex 27.4 -5.97862 3.03422
    endloop
  endfacet
  facet normal 1 -0 0
    outer loop
      vertex 27.4 -8.9 4.45
      vertex 27.4 -6.61435 3.90922
      vertex 27.4 -6.7 4.45
    endloop
  endfacet
  facet normal 1 0 0
    outer loop
      vertex 27.4 -8.9 4.45
      vertex 27.4 -6.36578 3.42138
      vertex 27.4 -6.61435 3.90922
    endloop
  endfacet
  facet normal 1 0 0
    outer loop
      vertex 27.4 -8.9 3.8147e-07
      vertex 27.4 -6.36578 3.42138
      vertex 27.4 -8.9 4.45
    endloop
  endfacet
  facet normal 1 0 0
    outer loop
      vertex 27.4 -6.36578 3.42138
      vertex 27.4 -8.9 3.8147e-07
      vertex 27.4 -5.97862 3.03422
    endloop
  endfacet
  facet normal 1 0 0
    outer loop
      vertex 27.4 -4.95 2.7
      vertex 27.4 -8.9 3.8147e-07
      vertex 27.4 -1 3.8147e-07
    endloop
  endfacet
  facet normal 0 -1 0
    outer loop
      vertex 16.4 -8.9 2.2
      vertex 16.4 -8.9 3.8147e-07
      vertex 22.4 -8.9 2.2
    endloop
  endfacet
  facet normal 0 -1 0
    outer loop
      vertex 22.4 -8.9 2.2
      vertex 27.4 -8.9 4.45
      vertex 22.4 -8.9 4.45
    endloop
  endfacet
  facet normal 0 -1 0
    outer loop
      vertex 22.4 -8.9 2.2
      vertex 27.4 -8.9 3.8147e-07
      vertex 27.4 -8.9 4.45
    endloop
  endfacet
  facet normal 0 -1 0
    outer loop
      vertex 27.4 -8.9 3.8147e-07
      vertex 22.4 -8.9 2.2
      vertex 16.4 -8.9 3.8147e-07
    endloop
  endfacet
  facet normal 0 1 -0
    outer loop
      vertex 27.4 -1 3.8147e-07
      vertex 3.01 -1 4.45
      vertex 27.4 -1 4.45
    endloop
  endfacet
  facet normal 0 1 0
    outer loop
      vertex 3.01 -1 4.45
      vertex 27.4 -1 3.8147e-07
      vertex 3.01 -1 3.8147e-07
    endloop
  endfacet
  facet normal 1 -0 0
    outer loop
      vertex 16.4 -14.9 2.2
      vertex 16.4 -8.9 3.8147e-07
      vertex 16.4 -8.9 2.2
    endloop
  endfacet
  facet normal 1 0 0
    outer loop
      vertex 16.4 -8.9 3.8147e-07
      vertex 16.4 -14.9 2.2
      vertex 16.4 -14.9 3.8147e-07
    endloop
  endfacet
  facet normal 0 -1 0
    outer loop
      vertex 0 -14.9 4.45
      vertex 2.2 -14.9 2.2
      vertex 2.2 -14.9 4.45
    endloop
  endfacet
  facet normal 0 -1 0
    outer loop
      vertex 16.4 -14.9 3.8147e-07
      vertex 14.2 -14.9 2.2
      vertex 2.2 -14.9 2.2
    endloop
  endfacet
  facet normal 0 -1 0
    outer loop
      vertex 0 -14.9 3.8147e-07
      vertex 2.2 -14.9 2.2
      vertex 0 -14.9 4.45
    endloop
  endfacet
  facet normal 0 -1 0
    outer loop
      vertex 16.4 -14.9 3.8147e-07
      vertex 2.2 -14.9 2.2
      vertex 0 -14.9 3.8147e-07
    endloop
  endfacet
  facet normal 0 -1 0
    outer loop
      vertex 14.2 -14.9 2.2
      vertex 16.4 -14.9 3.8147e-07
      vertex 16.4 -14.9 2.2
    endloop
  endfacet
  facet normal 0 -1 0
    outer loop
      vertex 16.4 -14.9 2.2
      vertex 14.2 -14.9 4.45
      vertex 14.2 -14.9 2.2
    endloop
  endfacet
  facet normal 0 -1 0
    outer loop
      vertex 14.2 -14.9 4.45
      vertex 16.4 -14.9 2.2
      vertex 19.39 -14.9 4.45
    endloop
  endfacet
  facet normal 0 -1 -0
    outer loop
      vertex 19.39 -14.9 4.45
      vertex 16.4 -14.9 2.2
      vertex 19.39 -14.9 2.2
    endloop
  endfacet
  facet normal 0 0 -1
    outer loop
      vertex 20.9 -11.9 2.2
      vertex 22.4 -11.9 2.2
      vertex 22.3344 -12.5237 2.2
    endloop
  endfacet
  facet normal 0 0 -1
    outer loop
      vertex 22.3989 -11.89 2.2
      vertex 22.4 -8.9 2.2
      vertex 22.4 -11.89 2.2
    endloop
  endfacet
  facet normal 0 0 -1
    outer loop
      vertex 22.4 -11.9 2.2
      vertex 20.9 -11.9 2.2
      vertex 22.3989 -11.89 2.2
    endloop
  endfacet
  facet normal 0 0 -1
    outer loop
      vertex 20.8266 -12.3635 2.2
      vertex 22.3344 -12.5237 2.2
      vertex 22.1406 -13.1202 2.2
    endloop
  endfacet
  facet normal 0 0 -1
    outer loop
      vertex 20.6135 -12.7817 2.2
      vertex 22.1406 -13.1202 2.2
      vertex 21.8271 -13.6634 2.2
    endloop
  endfacet
  facet normal 0 0 -1
    outer loop
      vertex 20.6135 -12.7817 2.2
      vertex 21.8271 -13.6634 2.2
      vertex 21.4074 -14.1294 2.2
    endloop
  endfacet
  facet normal 0 0 -1
    outer loop
      vertex 20.2817 -13.1135 2.2
      vertex 21.4074 -14.1294 2.2
      vertex 20.9 -14.4981 2.2
    endloop
  endfacet
  facet normal 0 0 -1
    outer loop
      vertex 22.3344 -12.5237 2.2
      vertex 20.8266 -12.3635 2.2
      vertex 20.9 -11.9 2.2
    endloop
  endfacet
  facet normal 0 0 -1
    outer loop
      vertex 20.6135 -11.0183 2.2
      vertex 22.3989 -11.89 2.2
      vertex 20.8266 -11.4365 2.2
    endloop
  endfacet
  facet normal 0 0 -1
    outer loop
      vertex 22.3989 -11.89 2.2
      vertex 20.6135 -11.0183 2.2
      vertex 22.4 -8.9 2.2
    endloop
  endfacet
  facet normal 0 0 -1
    outer loop
      vertex 20.2817 -10.6865 2.2
      vertex 22.4 -8.9 2.2
      vertex 20.6135 -11.0183 2.2
    endloop
  endfacet
  facet normal 0 0 -1
    outer loop
      vertex 19.8635 -10.4734 2.2
      vertex 22.4 -8.9 2.2
      vertex 20.2817 -10.6865 2.2
    endloop
  endfacet
  facet normal 0 0 -1
    outer loop
      vertex 19.4 -10.4 2.2
      vertex 22.4 -8.9 2.2
      vertex 19.8635 -10.4734 2.2
    endloop
  endfacet
  facet normal 0 0 -1
    outer loop
      vertex 16.4 -8.9 2.2
      vertex 19.4 -10.4 2.2
      vertex 18.9365 -10.4734 2.2
    endloop
  endfacet
  facet normal 0 0 -1
    outer loop
      vertex 16.4 -8.9 2.2
      vertex 17.9 -11.9 2.2
      vertex 16.4 -14.9 2.2
    endloop
  endfacet
  facet normal 0 0 -1
    outer loop
      vertex 19.4 -10.4 2.2
      vertex 16.4 -8.9 2.2
      vertex 22.4 -8.9 2.2
    endloop
  endfacet
  facet normal 0 0 -1
    outer loop
      vertex 18.5183 -10.6865 2.2
      vertex 16.4 -8.9 2.2
      vertex 18.9365 -10.4734 2.2
    endloop
  endfacet
  facet normal 0 0 -1
    outer loop
      vertex 18.1865 -11.0183 2.2
      vertex 16.4 -8.9 2.2
      vertex 18.5183 -10.6865 2.2
    endloop
  endfacet
  facet normal 0 0 -1
    outer loop
      vertex 17.9734 -11.4365 2.2
      vertex 16.4 -8.9 2.2
      vertex 18.1865 -11.0183 2.2
    endloop
  endfacet
  facet normal 0 0 -1
    outer loop
      vertex 17.9 -11.9 2.2
      vertex 16.4 -8.9 2.2
      vertex 17.9734 -11.4365 2.2
    endloop
  endfacet
  facet normal 0 0 -1
    outer loop
      vertex 16.4 -14.9 2.2
      vertex 19.39 -14.8836 2.2
      vertex 19.39 -14.9 2.2
    endloop
  endfacet
  facet normal 0 0 -1
    outer loop
      vertex 19.39 -14.8836 2.2
      vertex 18.5183 -13.1135 2.2
      vertex 18.9365 -13.3266 2.2
    endloop
  endfacet
  facet normal -0 0 -1
    outer loop
      vertex 19.39 -14.8836 2.2
      vertex 16.4 -14.9 2.2
      vertex 18.5183 -13.1135 2.2
    endloop
  endfacet
  facet normal -0 0 -1
    outer loop
      vertex 17.9734 -12.3635 2.2
      vertex 16.4 -14.9 2.2
      vertex 17.9 -11.9 2.2
    endloop
  endfacet
  facet normal -0 0 -1
    outer loop
      vertex 18.1865 -12.7817 2.2
      vertex 16.4 -14.9 2.2
      vertex 17.9734 -12.3635 2.2
    endloop
  endfacet
  facet normal -0 0 -1
    outer loop
      vertex 18.5183 -13.1135 2.2
      vertex 16.4 -14.9 2.2
      vertex 18.1865 -12.7817 2.2
    endloop
  endfacet
  facet normal -0 0 -1
    outer loop
      vertex 22.3989 -11.89 2.2
      vertex 20.9 -11.9 2.2
      vertex 20.8266 -11.4365 2.2
    endloop
  endfacet
  facet normal 0 0 -1
    outer loop
      vertex 22.1406 -13.1202 2.2
      vertex 20.6135 -12.7817 2.2
      vertex 20.8266 -12.3635 2.2
    endloop
  endfacet
  facet normal 0 0 -1
    outer loop
      vertex 19.8635 -13.3266 2.2
      vertex 20.9 -14.4981 2.2
      vertex 20.3271 -14.7532 2.2
    endloop
  endfacet
  facet normal 0 0 -1
    outer loop
      vertex 21.4074 -14.1294 2.2
      vertex 20.2817 -13.1135 2.2
      vertex 20.6135 -12.7817 2.2
    endloop
  endfacet
  facet normal 0 0 -1
    outer loop
      vertex 20.9 -14.4981 2.2
      vertex 19.8635 -13.3266 2.2
      vertex 20.2817 -13.1135 2.2
    endloop
  endfacet
  facet normal 0 0 -1
    outer loop
      vertex 19.7136 -14.8836 2.2
      vertex 19.8635 -13.3266 2.2
      vertex 20.3271 -14.7532 2.2
    endloop
  endfacet
  facet normal 0 0 -1
    outer loop
      vertex 19.7136 -14.8836 2.2
      vertex 19.4 -13.4 2.2
      vertex 19.8635 -13.3266 2.2
    endloop
  endfacet
  facet normal 0 0 -1
    outer loop
      vertex 19.39 -14.8836 2.2
      vertex 19.4 -13.4 2.2
      vertex 19.7136 -14.8836 2.2
    endloop
  endfacet
  facet normal -0 0 -1
    outer loop
      vertex 19.4 -13.4 2.2
      vertex 19.39 -14.8836 2.2
      vertex 18.9365 -13.3266 2.2
    endloop
  endfacet
  facet normal 1 -0 0
    outer loop
      vertex 22.4 -11.89 4.45
      vertex 22.4 -8.9 2.2
      vertex 22.4 -8.9 4.45
    endloop
  endfacet
  facet normal 1 0 0
    outer loop
      vertex 22.4 -8.9 2.2
      vertex 22.4 -11.89 4.45
      vertex 22.4 -11.89 2.2
    endloop
  endfacet
  facet normal -1 0 0
    outer loop
      vertex 3.01 -1.01643 3.8147e-07
      vertex 3.01 -1 4.45
      vertex 3.01 -1 3.8147e-07
    endloop
  endfacet
  facet normal -1 -0 0
    outer loop
      vertex 3.01 -1 4.45
      vertex 3.01 -1.01643 3.8147e-07
      vertex 3.01 -1.01643 4.45
    endloop
  endfacet
  facet normal 0 1 -0
    outer loop
      vertex 0.00105096 -4.01 3.8147e-07
      vertex 0 -4.01 4.45
      vertex 0.00105096 -4.01 4.45
    endloop
  endfacet
  facet normal 0 1 0
    outer loop
      vertex 0 -4.01 4.45
      vertex 0.00105096 -4.01 3.8147e-07
      vertex 0 -4.01 3.8147e-07
    endloop
  endfacet
  facet normal -0.994522 -0.104528 0
    outer loop
      vertex 0.00105096 -4.01 3.8147e-07
      vertex 0 -4 4.45
      vertex 0 -4 3.8147e-07
    endloop
  endfacet
  facet normal -0.994522 -0.104528 0
    outer loop
      vertex 0 -4 4.45
      vertex 0.00105096 -4.01 3.8147e-07
      vertex 0.00105096 -4.01 4.45
    endloop
  endfacet
  facet normal -0.994522 0.104527 0
    outer loop
      vertex 0 -4 3.8147e-07
      vertex 0.0655565 -3.37626 4.45
      vertex 0.0655565 -3.37626 3.8147e-07
    endloop
  endfacet
  facet normal -0.994522 0.104527 0
    outer loop
      vertex 0.0655565 -3.37626 4.45
      vertex 0 -4 3.8147e-07
      vertex 0 -4 4.45
    endloop
  endfacet
  facet normal -0.406737 0.913545 0
    outer loop
      vertex 2.07295 -1.14683 3.8147e-07
      vertex 1.5 -1.40192 4.45
      vertex 2.07295 -1.14683 4.45
    endloop
  endfacet
  facet normal -0.406737 0.913545 0
    outer loop
      vertex 1.5 -1.40192 4.45
      vertex 2.07295 -1.14683 3.8147e-07
      vertex 1.5 -1.40192 3.8147e-07
    endloop
  endfacet
  facet normal -0.743144 0.669131 0
    outer loop
      vertex 0.572948 -2.23664 3.8147e-07
      vertex 0.992608 -1.77057 4.45
      vertex 0.992608 -1.77057 3.8147e-07
    endloop
  endfacet
  facet normal -0.743144 0.669131 0
    outer loop
      vertex 0.992608 -1.77057 4.45
      vertex 0.572948 -2.23664 3.8147e-07
      vertex 0.572948 -2.23664 4.45
    endloop
  endfacet
  facet normal -0.587786 0.809016 0
    outer loop
      vertex 1.5 -1.40192 3.8147e-07
      vertex 0.992608 -1.77057 4.45
      vertex 1.5 -1.40192 4.45
    endloop
  endfacet
  facet normal -0.587786 0.809016 0
    outer loop
      vertex 0.992608 -1.77057 4.45
      vertex 1.5 -1.40192 3.8147e-07
      vertex 0.992608 -1.77057 3.8147e-07
    endloop
  endfacet
  facet normal 0 1 -0
    outer loop
      vertex 3.01 -1.01643 3.8147e-07
      vertex 2.68641 -1.01643 4.45
      vertex 3.01 -1.01643 4.45
    endloop
  endfacet
  facet normal 0 1 0
    outer loop
      vertex 2.68641 -1.01643 4.45
      vertex 3.01 -1.01643 3.8147e-07
      vertex 2.68641 -1.01643 3.8147e-07
    endloop
  endfacet
  facet normal -0.866026 0.5 0
    outer loop
      vertex 0.259363 -2.77979 3.8147e-07
      vertex 0.572948 -2.23664 4.45
      vertex 0.572948 -2.23664 3.8147e-07
    endloop
  endfacet
  facet normal -0.866026 0.5 0
    outer loop
      vertex 0.572948 -2.23664 4.45
      vertex 0.259363 -2.77979 3.8147e-07
      vertex 0.259363 -2.77979 4.45
    endloop
  endfacet
  facet normal -0.951056 0.309017 0
    outer loop
      vertex 0.0655565 -3.37626 3.8147e-07
      vertex 0.259363 -2.77979 4.45
      vertex 0.259363 -2.77979 3.8147e-07
    endloop
  endfacet
  facet normal -0.951056 0.309017 0
    outer loop
      vertex 0.259363 -2.77979 4.45
      vertex 0.0655565 -3.37626 3.8147e-07
      vertex 0.0655565 -3.37626 4.45
    endloop
  endfacet
  facet normal -0.207911 0.978148 0
    outer loop
      vertex 2.68641 -1.01643 3.8147e-07
      vertex 2.07295 -1.14683 4.45
      vertex 2.68641 -1.01643 4.45
    endloop
  endfacet
  facet normal -0.207911 0.978148 0
    outer loop
      vertex 2.07295 -1.14683 4.45
      vertex 2.68641 -1.01643 3.8147e-07
      vertex 2.07295 -1.14683 3.8147e-07
    endloop
  endfacet
  facet normal 1 -0 0
    outer loop
      vertex 19.39 -14.9 4.45
      vertex 19.39 -14.8836 2.2
      vertex 19.39 -14.8836 4.45
    endloop
  endfacet
  facet normal 1 0 0
    outer loop
      vertex 19.39 -14.8836 2.2
      vertex 19.39 -14.9 4.45
      vertex 19.39 -14.9 2.2
    endloop
  endfacet
  facet normal 0 -1 0
    outer loop
      vertex 22.3989 -11.89 2.2
      vertex 22.4 -11.89 4.45
      vertex 22.3989 -11.89 4.45
    endloop
  endfacet
  facet normal 0 -1 -0
    outer loop
      vertex 22.4 -11.89 4.45
      vertex 22.3989 -11.89 2.2
      vertex 22.4 -11.89 2.2
    endloop
  endfacet
  facet normal 0.994519 0.104556 0
    outer loop
      vertex 22.4 -11.9 4.45
      vertex 22.3989 -11.89 2.2
      vertex 22.3989 -11.89 4.45
    endloop
  endfacet
  facet normal 0.994519 0.104556 0
    outer loop
      vertex 22.3989 -11.89 2.2
      vertex 22.4 -11.9 4.45
      vertex 22.4 -11.9 2.2
    endloop
  endfacet
  facet normal 0.994522 -0.104526 0
    outer loop
      vertex 22.3344 -12.5237 4.45
      vertex 22.4 -11.9 2.2
      vertex 22.4 -11.9 4.45
    endloop
  endfacet
  facet normal 0.994522 -0.104526 0
    outer loop
      vertex 22.4 -11.9 2.2
      vertex 22.3344 -12.5237 4.45
      vertex 22.3344 -12.5237 2.2
    endloop
  endfacet
  facet normal 0.406736 -0.913546 0
    outer loop
      vertex 20.3271 -14.7532 2.2
      vertex 20.9 -14.4981 4.45
      vertex 20.3271 -14.7532 4.45
    endloop
  endfacet
  facet normal 0.406736 -0.913546 0
    outer loop
      vertex 20.9 -14.4981 4.45
      vertex 20.3271 -14.7532 2.2
      vertex 20.9 -14.4981 2.2
    endloop
  endfacet
  facet normal 0.743145 -0.66913 0
    outer loop
      vertex 21.4074 -14.1294 4.45
      vertex 21.8271 -13.6634 2.2
      vertex 21.8271 -13.6634 4.45
    endloop
  endfacet
  facet normal 0.743145 -0.66913 0
    outer loop
      vertex 21.8271 -13.6634 2.2
      vertex 21.4074 -14.1294 4.45
      vertex 21.4074 -14.1294 2.2
    endloop
  endfacet
  facet normal 0.587786 -0.809016 0
    outer loop
      vertex 20.9 -14.4981 2.2
      vertex 21.4074 -14.1294 4.45
      vertex 20.9 -14.4981 4.45
    endloop
  endfacet
  facet normal 0.587786 -0.809016 0
    outer loop
      vertex 21.4074 -14.1294 4.45
      vertex 20.9 -14.4981 2.2
      vertex 21.4074 -14.1294 2.2
    endloop
  endfacet
  facet normal 0 -1 0
    outer loop
      vertex 19.39 -14.8836 2.2
      vertex 19.7136 -14.8836 4.45
      vertex 19.39 -14.8836 4.45
    endloop
  endfacet
  facet normal 0 -1 -0
    outer loop
      vertex 19.7136 -14.8836 4.45
      vertex 19.39 -14.8836 2.2
      vertex 19.7136 -14.8836 2.2
    endloop
  endfacet
  facet normal 0.866026 -0.5 0
    outer loop
      vertex 21.8271 -13.6634 4.45
      vertex 22.1406 -13.1202 2.2
      vertex 22.1406 -13.1202 4.45
    endloop
  endfacet
  facet normal 0.866026 -0.5 0
    outer loop
      vertex 22.1406 -13.1202 2.2
      vertex 21.8271 -13.6634 4.45
      vertex 21.8271 -13.6634 2.2
    endloop
  endfacet
  facet normal 0.951056 -0.309019 0
    outer loop
      vertex 22.1406 -13.1202 4.45
      vertex 22.3344 -12.5237 2.2
      vertex 22.3344 -12.5237 4.45
    endloop
  endfacet
  facet normal 0.951056 -0.309019 0
    outer loop
      vertex 22.3344 -12.5237 2.2
      vertex 22.1406 -13.1202 4.45
      vertex 22.1406 -13.1202 2.2
    endloop
  endfacet
  facet normal 0.207912 -0.978148 0
    outer loop
      vertex 19.7136 -14.8836 2.2
      vertex 20.3271 -14.7532 4.45
      vertex 19.7136 -14.8836 4.45
    endloop
  endfacet
  facet normal 0.207912 -0.978148 0
    outer loop
      vertex 20.3271 -14.7532 4.45
      vertex 19.7136 -14.8836 2.2
      vertex 20.3271 -14.7532 2.2
    endloop
  endfacet
  facet normal -0.987688 0.156435 0
    outer loop
      vertex 20.8266 -12.3635 2.2
      vertex 20.9 -11.9 4.45
      vertex 20.9 -11.9 2.2
    endloop
  endfacet
  facet normal -0.987688 0.156435 0
    outer loop
      vertex 20.9 -11.9 4.45
      vertex 20.8266 -12.3635 2.2
      vertex 20.8266 -12.3635 4.45
    endloop
  endfacet
  facet normal 0.156435 0.987688 -0
    outer loop
      vertex 19.4 -13.4 2.2
      vertex 18.9365 -13.3266 4.45
      vertex 19.4 -13.4 4.45
    endloop
  endfacet
  facet normal 0.156435 0.987688 0
    outer loop
      vertex 18.9365 -13.3266 4.45
      vertex 19.4 -13.4 2.2
      vertex 18.9365 -13.3266 2.2
    endloop
  endfacet
  facet normal -0.156433 -0.987688 0
    outer loop
      vertex 19.4 -10.4 2.2
      vertex 19.8635 -10.4734 4.45
      vertex 19.4 -10.4 4.45
    endloop
  endfacet
  facet normal -0.156433 -0.987688 -0
    outer loop
      vertex 19.8635 -10.4734 4.45
      vertex 19.4 -10.4 2.2
      vertex 19.8635 -10.4734 2.2
    endloop
  endfacet
  facet normal -0.707107 0.707107 0
    outer loop
      vertex 20.2817 -13.1135 2.2
      vertex 20.6135 -12.7817 4.45
      vertex 20.6135 -12.7817 2.2
    endloop
  endfacet
  facet normal -0.707107 0.707107 0
    outer loop
      vertex 20.6135 -12.7817 4.45
      vertex 20.2817 -13.1135 2.2
      vertex 20.2817 -13.1135 4.45
    endloop
  endfacet
  facet normal -0.891007 0.45399 0
    outer loop
      vertex 20.6135 -12.7817 2.2
      vertex 20.8266 -12.3635 4.45
      vertex 20.8266 -12.3635 2.2
    endloop
  endfacet
  facet normal -0.891007 0.45399 0
    outer loop
      vertex 20.8266 -12.3635 4.45
      vertex 20.6135 -12.7817 2.2
      vertex 20.6135 -12.7817 4.45
    endloop
  endfacet
  facet normal 0.891007 0.45399 0
    outer loop
      vertex 18.1865 -12.7817 4.45
      vertex 17.9734 -12.3635 2.2
      vertex 17.9734 -12.3635 4.45
    endloop
  endfacet
  facet normal 0.891007 0.45399 0
    outer loop
      vertex 17.9734 -12.3635 2.2
      vertex 18.1865 -12.7817 4.45
      vertex 18.1865 -12.7817 2.2
    endloop
  endfacet
  facet normal 0.987688 0.156435 0
    outer loop
      vertex 17.9734 -12.3635 4.45
      vertex 17.9 -11.9 2.2
      vertex 17.9 -11.9 4.45
    endloop
  endfacet
  facet normal 0.987688 0.156435 0
    outer loop
      vertex 17.9 -11.9 2.2
      vertex 17.9734 -12.3635 4.45
      vertex 17.9734 -12.3635 2.2
    endloop
  endfacet
  facet normal 0.45399 0.891007 -0
    outer loop
      vertex 18.9365 -13.3266 2.2
      vertex 18.5183 -13.1135 4.45
      vertex 18.9365 -13.3266 4.45
    endloop
  endfacet
  facet normal 0.45399 0.891007 0
    outer loop
      vertex 18.5183 -13.1135 4.45
      vertex 18.9365 -13.3266 2.2
      vertex 18.5183 -13.1135 2.2
    endloop
  endfacet
  facet normal 0.156433 -0.987688 0
    outer loop
      vertex 18.9365 -10.4734 2.2
      vertex 19.4 -10.4 4.45
      vertex 18.9365 -10.4734 4.45
    endloop
  endfacet
  facet normal 0.156433 -0.987688 0
    outer loop
      vertex 19.4 -10.4 4.45
      vertex 18.9365 -10.4734 2.2
      vertex 19.4 -10.4 2.2
    endloop
  endfacet
  facet normal 0.891007 -0.45399 0
    outer loop
      vertex 17.9734 -11.4365 4.45
      vertex 18.1865 -11.0183 2.2
      vertex 18.1865 -11.0183 4.45
    endloop
  endfacet
  facet normal 0.891007 -0.45399 0
    outer loop
      vertex 18.1865 -11.0183 2.2
      vertex 17.9734 -11.4365 4.45
      vertex 17.9734 -11.4365 2.2
    endloop
  endfacet
  facet normal -0.156435 0.987688 0
    outer loop
      vertex 19.8635 -13.3266 2.2
      vertex 19.4 -13.4 4.45
      vertex 19.8635 -13.3266 4.45
    endloop
  endfacet
  facet normal -0.156435 0.987688 0
    outer loop
      vertex 19.4 -13.4 4.45
      vertex 19.8635 -13.3266 2.2
      vertex 19.4 -13.4 2.2
    endloop
  endfacet
  facet normal -0.45399 0.891007 0
    outer loop
      vertex 20.2817 -13.1135 2.2
      vertex 19.8635 -13.3266 4.45
      vertex 20.2817 -13.1135 4.45
    endloop
  endfacet
  facet normal -0.45399 0.891007 0
    outer loop
      vertex 19.8635 -13.3266 4.45
      vertex 20.2817 -13.1135 2.2
      vertex 19.8635 -13.3266 2.2
    endloop
  endfacet
  facet normal 0.987688 -0.156435 0
    outer loop
      vertex 17.9 -11.9 4.45
      vertex 17.9734 -11.4365 2.2
      vertex 17.9734 -11.4365 4.45
    endloop
  endfacet
  facet normal 0.987688 -0.156435 0
    outer loop
      vertex 17.9734 -11.4365 2.2
      vertex 17.9 -11.9 4.45
      vertex 17.9 -11.9 2.2
    endloop
  endfacet
  facet normal 0.707107 0.707107 0
    outer loop
      vertex 18.5183 -13.1135 4.45
      vertex 18.1865 -12.7817 2.2
      vertex 18.1865 -12.7817 4.45
    endloop
  endfacet
  facet normal 0.707107 0.707107 0
    outer loop
      vertex 18.1865 -12.7817 2.2
      vertex 18.5183 -13.1135 4.45
      vertex 18.5183 -13.1135 2.2
    endloop
  endfacet
  facet normal -0.707107 -0.707107 0
    outer loop
      vertex 20.6135 -11.0183 2.2
      vertex 20.2817 -10.6865 4.45
      vertex 20.2817 -10.6865 2.2
    endloop
  endfacet
  facet normal -0.707107 -0.707107 0
    outer loop
      vertex 20.2817 -10.6865 4.45
      vertex 20.6135 -11.0183 2.2
      vertex 20.6135 -11.0183 4.45
    endloop
  endfacet
  facet normal -0.453991 -0.891006 0
    outer loop
      vertex 19.8635 -10.4734 2.2
      vertex 20.2817 -10.6865 4.45
      vertex 19.8635 -10.4734 4.45
    endloop
  endfacet
  facet normal -0.453991 -0.891006 -0
    outer loop
      vertex 20.2817 -10.6865 4.45
      vertex 19.8635 -10.4734 2.2
      vertex 20.2817 -10.6865 2.2
    endloop
  endfacet
  facet normal -0.891007 -0.45399 0
    outer loop
      vertex 20.8266 -11.4365 2.2
      vertex 20.6135 -11.0183 4.45
      vertex 20.6135 -11.0183 2.2
    endloop
  endfacet
  facet normal -0.891007 -0.45399 0
    outer loop
      vertex 20.6135 -11.0183 4.45
      vertex 20.8266 -11.4365 2.2
      vertex 20.8266 -11.4365 4.45
    endloop
  endfacet
  facet normal 0.707107 -0.707107 0
    outer loop
      vertex 18.1865 -11.0183 4.45
      vertex 18.5183 -10.6865 2.2
      vertex 18.5183 -10.6865 4.45
    endloop
  endfacet
  facet normal 0.707107 -0.707107 0
    outer loop
      vertex 18.5183 -10.6865 2.2
      vertex 18.1865 -11.0183 4.45
      vertex 18.1865 -11.0183 2.2
    endloop
  endfacet
  facet normal -0.987688 -0.156435 0
    outer loop
      vertex 20.9 -11.9 2.2
      vertex 20.8266 -11.4365 4.45
      vertex 20.8266 -11.4365 2.2
    endloop
  endfacet
  facet normal -0.987688 -0.156435 0
    outer loop
      vertex 20.8266 -11.4365 4.45
      vertex 20.9 -11.9 2.2
      vertex 20.9 -11.9 4.45
    endloop
  endfacet
  facet normal 0.453991 -0.891006 0
    outer loop
      vertex 18.5183 -10.6865 2.2
      vertex 18.9365 -10.4734 4.45
      vertex 18.5183 -10.6865 4.45
    endloop
  endfacet
  facet normal 0.453991 -0.891006 0
    outer loop
      vertex 18.9365 -10.4734 4.45
      vertex 18.5183 -10.6865 2.2
      vertex 18.9365 -10.4734 2.2
    endloop
  endfacet
  facet normal 1 0 0
    outer loop
      vertex 2.2 -3.2 4.45
      vertex 2.2 -3.53422 3.42138
      vertex 2.2 -3.28565 3.90922
    endloop
  endfacet
  facet normal 1 0 0
    outer loop
      vertex 2.2 -3.2 4.45
      vertex 2.2 -3.92138 3.03422
      vertex 2.2 -3.53422 3.42138
    endloop
  endfacet
  facet normal 1 0 0
    outer loop
      vertex 2.2 -3.2 4.45
      vertex 2.2 -4.40922 2.78565
      vertex 2.2 -3.92138 3.03422
    endloop
  endfacet
  facet normal 1 0 0
    outer loop
      vertex 2.2 -3.2 4.45
      vertex 2.2 -4.95 2.7
      vertex 2.2 -4.40922 2.78565
    endloop
  endfacet
  facet normal 1 -0 0
    outer loop
      vertex 2.2 -14.9 4.45
      vertex 2.2 -4.95 2.7
      vertex 2.2 -3.2 4.45
    endloop
  endfacet
  facet normal 1 0 0
    outer loop
      vertex 2.2 -14.9 2.2
      vertex 2.2 -4.95 2.7
      vertex 2.2 -14.9 4.45
    endloop
  endfacet
  facet normal 1 0 0
    outer loop
      vertex 2.2 -4.95 2.7
      vertex 2.2 -14.9 2.2
      vertex 2.2 -4.95 2.2
    endloop
  endfacet
  facet normal -0 0 1
    outer loop
      vertex 2.2 -4.95 2.2
      vertex 14.2 -14.9 2.2
      vertex 14.2 -4.95 2.2
    endloop
  endfacet
  facet normal 0 0 1
    outer loop
      vertex 14.2 -14.9 2.2
      vertex 2.2 -4.95 2.2
      vertex 2.2 -14.9 2.2
    endloop
  endfacet
  facet normal -1 0 0
    outer loop
      vertex 14.2 -4.95 2.2
      vertex 14.2 -5.49078 2.78565
      vertex 14.2 -4.95 2.7
    endloop
  endfacet
  facet normal -1 0 0
    outer loop
      vertex 14.2 -4.95 2.2
      vertex 14.2 -5.97862 3.03422
      vertex 14.2 -5.49078 2.78565
    endloop
  endfacet
  facet normal -1 0 0
    outer loop
      vertex 14.2 -14.9 2.2
      vertex 14.2 -5.97862 3.03422
      vertex 14.2 -4.95 2.2
    endloop
  endfacet
  facet normal -1 0 0
    outer loop
      vertex 14.2 -14.9 2.2
      vertex 14.2 -6.36578 3.42138
      vertex 14.2 -5.97862 3.03422
    endloop
  endfacet
  facet normal -1 0 0
    outer loop
      vertex 14.2 -14.9 2.2
      vertex 14.2 -6.61435 3.90922
      vertex 14.2 -6.36578 3.42138
    endloop
  endfacet
  facet normal -1 0 0
    outer loop
      vertex 14.2 -14.9 4.45
      vertex 14.2 -6.61435 3.90922
      vertex 14.2 -14.9 2.2
    endloop
  endfacet
  facet normal -1 0 0
    outer loop
      vertex 14.2 -6.61435 3.90922
      vertex 14.2 -14.9 4.45
      vertex 14.2 -6.7 4.45
    endloop
  endfacet
  facet normal 0 -1 0
    outer loop
      vertex 2.2 -4.95 2.2
      vertex 14.2 -4.95 2.7
      vertex 2.2 -4.95 2.7
    endloop
  endfacet
  facet normal 0 -1 -0
    outer loop
      vertex 14.2 -4.95 2.7
      vertex 2.2 -4.95 2.2
      vertex 14.2 -4.95 2.2
    endloop
  endfacet
  facet normal -0 0.156435 0.987688
    outer loop
      vertex 14.2 -4.95 2.7
      vertex 27.4 -5.49078 2.78565
      vertex 27.4 -4.95 2.7
    endloop
  endfacet
  facet normal 0 0.156435 0.987688
    outer loop
      vertex 27.4 -5.49078 2.78565
      vertex 14.2 -4.95 2.7
      vertex 14.2 -5.49078 2.78565
    endloop
  endfacet
  facet normal 0 0.891006 0.453991
    outer loop
      vertex 27.4 -6.36578 3.42138
      vertex 14.2 -6.61435 3.90922
      vertex 27.4 -6.61435 3.90922
    endloop
  endfacet
  facet normal 0 0.891006 0.453991
    outer loop
      vertex 14.2 -6.61435 3.90922
      vertex 27.4 -6.36578 3.42138
      vertex 14.2 -6.36578 3.42138
    endloop
  endfacet
  facet normal 0 0.707107 0.707107
    outer loop
      vertex 27.4 -5.97862 3.03422
      vertex 14.2 -6.36578 3.42138
      vertex 27.4 -6.36578 3.42138
    endloop
  endfacet
  facet normal 0 0.707107 0.707107
    outer loop
      vertex 14.2 -6.36578 3.42138
      vertex 27.4 -5.97862 3.03422
      vertex 14.2 -5.97862 3.03422
    endloop
  endfacet
  facet normal 0 0.987688 0.156435
    outer loop
      vertex 27.4 -6.61435 3.90922
      vertex 14.2 -6.7 4.45
      vertex 27.4 -6.7 4.45
    endloop
  endfacet
  facet normal 0 0.987688 0.156435
    outer loop
      vertex 14.2 -6.7 4.45
      vertex 27.4 -6.61435 3.90922
      vertex 14.2 -6.61435 3.90922
    endloop
  endfacet
  facet normal -0 0.453991 0.891006
    outer loop
      vertex 14.2 -5.49078 2.78565
      vertex 27.4 -5.97862 3.03422
      vertex 27.4 -5.49078 2.78565
    endloop
  endfacet
  facet normal 0 0.453991 0.891006
    outer loop
      vertex 27.4 -5.97862 3.03422
      vertex 14.2 -5.49078 2.78565
      vertex 14.2 -5.97862 3.03422
    endloop
  endfacet
  facet normal 0 -0.453991 0.891006
    outer loop
      vertex 2.2 -3.92138 3.03422
      vertex 27.4 -4.40922 2.78565
      vertex 27.4 -3.92138 3.03422
    endloop
  endfacet
  facet normal 0 -0.453991 0.891006
    outer loop
      vertex 27.4 -4.40922 2.78565
      vertex 2.2 -3.92138 3.03422
      vertex 2.2 -4.40922 2.78565
    endloop
  endfacet
  facet normal 0 -0.156435 0.987688
    outer loop
      vertex 27.4 -4.40922 2.78565
      vertex 14.2 -4.95 2.7
      vertex 27.4 -4.95 2.7
    endloop
  endfacet
  facet normal 0 -0.156435 0.987688
    outer loop
      vertex 2.2 -4.40922 2.78565
      vertex 14.2 -4.95 2.7
      vertex 27.4 -4.40922 2.78565
    endloop
  endfacet
  facet normal 0 -0.156435 0.987688
    outer loop
      vertex 14.2 -4.95 2.7
      vertex 2.2 -4.40922 2.78565
      vertex 2.2 -4.95 2.7
    endloop
  endfacet
  facet normal 0 -0.987688 0.156433
    outer loop
      vertex 2.2 -3.28565 3.90922
      vertex 27.4 -3.2 4.45
      vertex 2.2 -3.2 4.45
    endloop
  endfacet
  facet normal 0 -0.987688 0.156433
    outer loop
      vertex 27.4 -3.2 4.45
      vertex 2.2 -3.28565 3.90922
      vertex 27.4 -3.28565 3.90922
    endloop
  endfacet
  facet normal 0 -0.891006 0.453991
    outer loop
      vertex 2.2 -3.53422 3.42138
      vertex 27.4 -3.28565 3.90922
      vertex 2.2 -3.28565 3.90922
    endloop
  endfacet
  facet normal 0 -0.891006 0.453991
    outer loop
      vertex 27.4 -3.28565 3.90922
      vertex 2.2 -3.53422 3.42138
      vertex 27.4 -3.53422 3.42138
    endloop
  endfacet
  facet normal 0 -0.707107 0.707107
    outer loop
      vertex 2.2 -3.92138 3.03422
      vertex 27.4 -3.53422 3.42138
      vertex 2.2 -3.53422 3.42138
    endloop
  endfacet
  facet normal 0 -0.707107 0.707107
    outer loop
      vertex 27.4 -3.53422 3.42138
      vertex 2.2 -3.92138 3.03422
      vertex 27.4 -3.92138 3.03422
    endloop
  endfacet
  facet normal 0 0 1
    outer loop
      vertex 2.2 -3.2 4.45
      vertex 0 -4 4.45
      vertex 0.00105096 -4.01 4.45
    endloop
  endfacet
  facet normal 0 0 1
    outer loop
      vertex 3.01 -1.01643 4.45
      vertex 27.4 -1 4.45
      vertex 3.01 -1 4.45
    endloop
  endfacet
  facet normal 0 0 1
    outer loop
      vertex 27.4 -1 4.45
      vertex 3.01 -1.01643 4.45
      vertex 27.4 -3.2 4.45
    endloop
  endfacet
  facet normal 0 0 1
    outer loop
      vertex 2.2 -3.2 4.45
      vertex 3.01 -1.01643 4.45
      vertex 2.68641 -1.01643 4.45
    endloop
  endfacet
  facet normal 0 0 1
    outer loop
      vertex 3.01 -1.01643 4.45
      vertex 2.2 -3.2 4.45
      vertex 27.4 -3.2 4.45
    endloop
  endfacet
  facet normal -0 0 1
    outer loop
      vertex 2.07295 -1.14683 4.45
      vertex 2.2 -3.2 4.45
      vertex 2.68641 -1.01643 4.45
    endloop
  endfacet
  facet normal -0 0 1
    outer loop
      vertex 1.5 -1.40192 4.45
      vertex 2.2 -3.2 4.45
      vertex 2.07295 -1.14683 4.45
    endloop
  endfacet
  facet normal -0 0 1
    outer loop
      vertex 0.992608 -1.77057 4.45
      vertex 2.2 -3.2 4.45
      vertex 1.5 -1.40192 4.45
    endloop
  endfacet
  facet normal -0 0 1
    outer loop
      vertex 0.572948 -2.23664 4.45
      vertex 2.2 -3.2 4.45
      vertex 0.992608 -1.77057 4.45
    endloop
  endfacet
  facet normal -0 0 1
    outer loop
      vertex 0.259363 -2.77979 4.45
      vertex 2.2 -3.2 4.45
      vertex 0.572948 -2.23664 4.45
    endloop
  endfacet
  facet normal 0 0 1
    outer loop
      vertex 0.0655565 -3.37626 4.45
      vertex 2.2 -3.2 4.45
      vertex 0.259363 -2.77979 4.45
    endloop
  endfacet
  facet normal 0 0 1
    outer loop
      vertex 0 -4 4.45
      vertex 2.2 -3.2 4.45
      vertex 0.0655565 -3.37626 4.45
    endloop
  endfacet
  facet normal 0 0 1
    outer loop
      vertex 2.2 -3.2 4.45
      vertex 0.00105096 -4.01 4.45
      vertex 2.2 -14.9 4.45
    endloop
  endfacet
  facet normal 0 0 1
    outer loop
      vertex 0 -14.9 4.45
      vertex 0.00105096 -4.01 4.45
      vertex 0 -4.01 4.45
    endloop
  endfacet
  facet normal 0 0 1
    outer loop
      vertex 0.00105096 -4.01 4.45
      vertex 0 -14.9 4.45
      vertex 2.2 -14.9 4.45
    endloop
  endfacet
  facet normal 0 0 1
    outer loop
      vertex 27.4 -6.7 4.45
      vertex 22.4 -8.9 4.45
      vertex 27.4 -8.9 4.45
    endloop
  endfacet
  facet normal 0 0 1
    outer loop
      vertex 22.4 -8.9 4.45
      vertex 22.3989 -11.89 4.45
      vertex 22.4 -11.89 4.45
    endloop
  endfacet
  facet normal -0 0 1
    outer loop
      vertex 20.6135 -11.0183 4.45
      vertex 22.3989 -11.89 4.45
      vertex 22.4 -8.9 4.45
    endloop
  endfacet
  facet normal 0 -0 1
    outer loop
      vertex 20.9 -11.9 4.45
      vertex 22.3989 -11.89 4.45
      vertex 20.8266 -11.4365 4.45
    endloop
  endfacet
  facet normal 0 0 1
    outer loop
      vertex 22.3989 -11.89 4.45
      vertex 20.9 -11.9 4.45
      vertex 22.3344 -12.5237 4.45
    endloop
  endfacet
  facet normal 0 0 1
    outer loop
      vertex 22.3344 -12.5237 4.45
      vertex 20.8266 -12.3635 4.45
      vertex 22.1406 -13.1202 4.45
    endloop
  endfacet
  facet normal -0 0 1
    outer loop
      vertex 20.6135 -12.7817 4.45
      vertex 22.1406 -13.1202 4.45
      vertex 20.8266 -12.3635 4.45
    endloop
  endfacet
  facet normal 0 0 1
    outer loop
      vertex 22.1406 -13.1202 4.45
      vertex 20.6135 -12.7817 4.45
      vertex 21.8271 -13.6634 4.45
    endloop
  endfacet
  facet normal -0 0 1
    outer loop
      vertex 20.8266 -12.3635 4.45
      vertex 22.3344 -12.5237 4.45
      vertex 20.9 -11.9 4.45
    endloop
  endfacet
  facet normal 0 0 1
    outer loop
      vertex 22.3989 -11.89 4.45
      vertex 20.6135 -11.0183 4.45
      vertex 20.8266 -11.4365 4.45
    endloop
  endfacet
  facet normal 0 0 1
    outer loop
      vertex 22.4 -8.9 4.45
      vertex 20.2817 -10.6865 4.45
      vertex 20.6135 -11.0183 4.45
    endloop
  endfacet
  facet normal 0 0 1
    outer loop
      vertex 22.4 -8.9 4.45
      vertex 19.8635 -10.4734 4.45
      vertex 20.2817 -10.6865 4.45
    endloop
  endfacet
  facet normal 0 0 1
    outer loop
      vertex 22.4 -8.9 4.45
      vertex 19.4 -10.4 4.45
      vertex 19.8635 -10.4734 4.45
    endloop
  endfacet
  facet normal 0 0 1
    outer loop
      vertex 14.2 -6.7 4.45
      vertex 19.4 -10.4 4.45
      vertex 22.4 -8.9 4.45
    endloop
  endfacet
  facet normal 0 0 1
    outer loop
      vertex 14.2 -14.9 4.45
      vertex 17.9734 -11.4365 4.45
      vertex 14.2 -6.7 4.45
    endloop
  endfacet
  facet normal 0 0 1
    outer loop
      vertex 18.1865 -11.0183 4.45
      vertex 14.2 -6.7 4.45
      vertex 17.9734 -11.4365 4.45
    endloop
  endfacet
  facet normal 0 0 1
    outer loop
      vertex 18.5183 -10.6865 4.45
      vertex 14.2 -6.7 4.45
      vertex 18.1865 -11.0183 4.45
    endloop
  endfacet
  facet normal 0 0 1
    outer loop
      vertex 18.9365 -10.4734 4.45
      vertex 14.2 -6.7 4.45
      vertex 18.5183 -10.6865 4.45
    endloop
  endfacet
  facet normal 0 0 1
    outer loop
      vertex 19.4 -10.4 4.45
      vertex 14.2 -6.7 4.45
      vertex 18.9365 -10.4734 4.45
    endloop
  endfacet
  facet normal -0 0 1
    outer loop
      vertex 14.2 -6.7 4.45
      vertex 22.4 -8.9 4.45
      vertex 27.4 -6.7 4.45
    endloop
  endfacet
  facet normal 0 0 1
    outer loop
      vertex 22.4 -11.9 4.45
      vertex 22.3989 -11.89 4.45
      vertex 22.3344 -12.5237 4.45
    endloop
  endfacet
  facet normal 0 0 1
    outer loop
      vertex 21.8271 -13.6634 4.45
      vertex 20.6135 -12.7817 4.45
      vertex 21.4074 -14.1294 4.45
    endloop
  endfacet
  facet normal -0 0 1
    outer loop
      vertex 20.2817 -13.1135 4.45
      vertex 21.4074 -14.1294 4.45
      vertex 20.6135 -12.7817 4.45
    endloop
  endfacet
  facet normal 0 0 1
    outer loop
      vertex 21.4074 -14.1294 4.45
      vertex 20.2817 -13.1135 4.45
      vertex 20.9 -14.4981 4.45
    endloop
  endfacet
  facet normal -0 0 1
    outer loop
      vertex 19.8635 -13.3266 4.45
      vertex 20.9 -14.4981 4.45
      vertex 20.2817 -13.1135 4.45
    endloop
  endfacet
  facet normal 0 0 1
    outer loop
      vertex 20.9 -14.4981 4.45
      vertex 19.8635 -13.3266 4.45
      vertex 20.3271 -14.7532 4.45
    endloop
  endfacet
  facet normal 0 0 1
    outer loop
      vertex 19.8635 -13.3266 4.45
      vertex 19.7136 -14.8836 4.45
      vertex 20.3271 -14.7532 4.45
    endloop
  endfacet
  facet normal -0 0 1
    outer loop
      vertex 19.4 -13.4 4.45
      vertex 19.7136 -14.8836 4.45
      vertex 19.8635 -13.3266 4.45
    endloop
  endfacet
  facet normal 0 0 1
    outer loop
      vertex 19.4 -13.4 4.45
      vertex 19.39 -14.8836 4.45
      vertex 19.7136 -14.8836 4.45
    endloop
  endfacet
  facet normal 0 0 1
    outer loop
      vertex 18.9365 -13.3266 4.45
      vertex 19.39 -14.8836 4.45
      vertex 19.4 -13.4 4.45
    endloop
  endfacet
  facet normal 0 0 1
    outer loop
      vertex 18.5183 -13.1135 4.45
      vertex 19.39 -14.8836 4.45
      vertex 18.9365 -13.3266 4.45
    endloop
  endfacet
  facet normal 0 0 1
    outer loop
      vertex 19.39 -14.8836 4.45
      vertex 18.5183 -13.1135 4.45
      vertex 19.39 -14.9 4.45
    endloop
  endfacet
  facet normal 0 0 1
    outer loop
      vertex 14.2 -14.9 4.45
      vertex 18.5183 -13.1135 4.45
      vertex 18.1865 -12.7817 4.45
    endloop
  endfacet
  facet normal 0 0 1
    outer loop
      vertex 17.9734 -11.4365 4.45
      vertex 14.2 -14.9 4.45
      vertex 17.9 -11.9 4.45
    endloop
  endfacet
  facet normal 0 0 1
    outer loop
      vertex 17.9 -11.9 4.45
      vertex 14.2 -14.9 4.45
      vertex 17.9734 -12.3635 4.45
    endloop
  endfacet
  facet normal 0 0 1
    outer loop
      vertex 17.9734 -12.3635 4.45
      vertex 14.2 -14.9 4.45
      vertex 18.1865 -12.7817 4.45
    endloop
  endfacet
  facet normal 0 0 1
    outer loop
      vertex 18.5183 -13.1135 4.45
      vertex 14.2 -14.9 4.45
      vertex 19.39 -14.9 4.45
    endloop
  endfacet
endsolid OpenSCAD_Model
