solid OpenSCAD_Model
  facet normal -1 0 0
    outer loop
      vertex 0 4.01 0
      vertex 0 24 7
      vertex 0 24 0
    endloop
  endfacet
  facet normal -1 -0 0
    outer loop
      vertex 0 24 7
      vertex 0 4.01 0
      vertex 0 4.01 7
    endloop
  endfacet
  facet normal 1 0 0
    outer loop
      vertex 39 6.56366 5.75302
      vertex 39 9 7
      vertex 39 6.84828 7
    endloop
  endfacet
  facet normal 1 0 0
    outer loop
      vertex 39 9 7
      vertex 39 6.56366 5.75302
      vertex 39 9 0
    endloop
  endfacet
  facet normal 1 -0 0
    outer loop
      vertex 39 5 5
      vertex 39 9 0
      vertex 39 6.56366 5.75302
    endloop
  endfacet
  facet normal 1 0 0
    outer loop
      vertex 39 1 0
      vertex 39 5 5
      vertex 39 3.43634 5.75302
    endloop
  endfacet
  facet normal 1 -0 0
    outer loop
      vertex 39 1 7
      vertex 39 3.43634 5.75302
      vertex 39 3.15172 7
    endloop
  endfacet
  facet normal 1 0 0
    outer loop
      vertex 39 1 0
      vertex 39 3.43634 5.75302
      vertex 39 1 7
    endloop
  endfacet
  facet normal 1 0 0
    outer loop
      vertex 39 5 5
      vertex 39 1 0
      vertex 39 9 0
    endloop
  endfacet
  facet normal 0 0 -1
    outer loop
      vertex 0.0655565 3.37626 0
      vertex 0 4 0
      vertex 0.00105096 4.01 0
    endloop
  endfacet
  facet normal 0 0 -1
    outer loop
      vertex 39 1 0
      vertex 34 9 0
      vertex 39 9 0
    endloop
  endfacet
  facet normal 0 0 -1
    outer loop
      vertex 34 9 0
      vertex 33.9989 15.99 0
      vertex 34 15.99 0
    endloop
  endfacet
  facet normal 0 0 -1
    outer loop
      vertex 30.99 18.9836 0
      vertex 33.9989 15.99 0
      vertex 34 9 0
    endloop
  endfacet
  facet normal 0 0 -1
    outer loop
      vertex 33.9989 15.99 0
      vertex 30.99 18.9836 0
      vertex 33.9344 16.6237 0
    endloop
  endfacet
  facet normal 0 0 -1
    outer loop
      vertex 33.9344 16.6237 0
      vertex 30.99 18.9836 0
      vertex 33.7406 17.2202 0
    endloop
  endfacet
  facet normal 0 0 -1
    outer loop
      vertex 33.7406 17.2202 0
      vertex 30.99 18.9836 0
      vertex 33.4271 17.7634 0
    endloop
  endfacet
  facet normal 0 0 -1
    outer loop
      vertex 33.4271 17.7634 0
      vertex 30.99 18.9836 0
      vertex 33.0074 18.2294 0
    endloop
  endfacet
  facet normal 0 0 -1
    outer loop
      vertex 33.0074 18.2294 0
      vertex 30.99 18.9836 0
      vertex 32.5 18.5981 0
    endloop
  endfacet
  facet normal 0 0 -1
    outer loop
      vertex 32.5 18.5981 0
      vertex 30.99 18.9836 0
      vertex 31.9271 18.8532 0
    endloop
  endfacet
  facet normal 0 0 -1
    outer loop
      vertex 31.9271 18.8532 0
      vertex 30.99 18.9836 0
      vertex 31.3136 18.9836 0
    endloop
  endfacet
  facet normal 0 0 -1
    outer loop
      vertex 30.99 18.9836 0
      vertex 24 19 0
      vertex 30.99 19 0
    endloop
  endfacet
  facet normal 0 0 -1
    outer loop
      vertex 34 9 0
      vertex 24 19 0
      vertex 30.99 18.9836 0
    endloop
  endfacet
  facet normal 0 0 -1
    outer loop
      vertex 3.01 1 0
      vertex 34 9 0
      vertex 39 1 0
    endloop
  endfacet
  facet normal 0 0 -1
    outer loop
      vertex 34 9 0
      vertex 3.01 1 0
      vertex 3.01 1.01643 0
    endloop
  endfacet
  facet normal -0 0 -1
    outer loop
      vertex 34 9 0
      vertex 3.01 1.01643 0
      vertex 24 19 0
    endloop
  endfacet
  facet normal 0 0 -1
    outer loop
      vertex 0.00105096 4.01 0
      vertex 24 19 0
      vertex 3.01 1.01643 0
    endloop
  endfacet
  facet normal 0 0 -1
    outer loop
      vertex 2.07295 1.14683 0
      vertex 3.01 1.01643 0
      vertex 2.68641 1.01643 0
    endloop
  endfacet
  facet normal 0 0 -1
    outer loop
      vertex 1.5 1.40192 0
      vertex 3.01 1.01643 0
      vertex 2.07295 1.14683 0
    endloop
  endfacet
  facet normal 0 0 -1
    outer loop
      vertex 3.01 1.01643 0
      vertex 1.5 1.40192 0
      vertex 0.00105096 4.01 0
    endloop
  endfacet
  facet normal 0 0 -1
    outer loop
      vertex 0.00105096 4.01 0
      vertex 1.5 1.40192 0
      vertex 0.992608 1.77057 0
    endloop
  endfacet
  facet normal 0 0 -1
    outer loop
      vertex 0.00105096 4.01 0
      vertex 0.992608 1.77057 0
      vertex 0.572948 2.23664 0
    endloop
  endfacet
  facet normal 0 0 -1
    outer loop
      vertex 0.00105096 4.01 0
      vertex 0.572948 2.23664 0
      vertex 0.259363 2.77979 0
    endloop
  endfacet
  facet normal 0 0 -1
    outer loop
      vertex 0.00105096 4.01 0
      vertex 0.259363 2.77979 0
      vertex 0.0655565 3.37626 0
    endloop
  endfacet
  facet normal 0 0 -1
    outer loop
      vertex 0 24 0
      vertex 24 19 0
      vertex 0.00105096 4.01 0
    endloop
  endfacet
  facet normal 0 0 -1
    outer loop
      vertex 0 24 0
      vertex 0.00105096 4.01 0
      vertex 0 4.01 0
    endloop
  endfacet
  facet normal 0 0 -1
    outer loop
      vertex 24 19 0
      vertex 0 24 0
      vertex 24 24 0
    endloop
  endfacet
  facet normal -0 0 -1
    outer loop
      vertex 34 16 0
      vertex 33.9989 15.99 0
      vertex 33.9344 16.6237 0
    endloop
  endfacet
  facet normal 0 -1 0
    outer loop
      vertex 3.01 1 0
      vertex 39 1 7
      vertex 3.01 1 7
    endloop
  endfacet
  facet normal 0 -1 -0
    outer loop
      vertex 39 1 7
      vertex 3.01 1 0
      vertex 39 1 0
    endloop
  endfacet
  facet normal 0 1 -0
    outer loop
      vertex 39 9 0
      vertex 34 9 7
      vertex 39 9 7
    endloop
  endfacet
  facet normal 0 1 0
    outer loop
      vertex 34 9 7
      vertex 39 9 0
      vertex 34 9 0
    endloop
  endfacet
  facet normal 1 -0 0
    outer loop
      vertex 24 19 7
      vertex 24 24 0
      vertex 24 24 7
    endloop
  endfacet
  facet normal 1 0 0
    outer loop
      vertex 24 24 0
      vertex 24 19 7
      vertex 24 19 0
    endloop
  endfacet
  facet normal 0 1 0
    outer loop
      vertex 24 24 7
      vertex 22 24 2
      vertex 22 24 7
    endloop
  endfacet
  facet normal 0 1 0
    outer loop
      vertex 22 24 2
      vertex 24 24 0
      vertex 2 24 2
    endloop
  endfacet
  facet normal 0 1 -0
    outer loop
      vertex 24 24 0
      vertex 22 24 2
      vertex 24 24 7
    endloop
  endfacet
  facet normal 0 1 -0
    outer loop
      vertex 2 24 2
      vertex 0 24 7
      vertex 2 24 7
    endloop
  endfacet
  facet normal 0 1 0
    outer loop
      vertex 2 24 2
      vertex 0 24 0
      vertex 0 24 7
    endloop
  endfacet
  facet normal 0 1 0
    outer loop
      vertex 0 24 0
      vertex 2 24 2
      vertex 24 24 0
    endloop
  endfacet
  facet normal 1 -0 0
    outer loop
      vertex 34 9 7
      vertex 34 15.99 0
      vertex 34 15.99 7
    endloop
  endfacet
  facet normal 1 0 0
    outer loop
      vertex 34 15.99 0
      vertex 34 9 7
      vertex 34 9 0
    endloop
  endfacet
  facet normal 0 1 -0
    outer loop
      vertex 30.99 19 0
      vertex 24 19 7
      vertex 30.99 19 7
    endloop
  endfacet
  facet normal 0 1 0
    outer loop
      vertex 24 19 7
      vertex 30.99 19 0
      vertex 24 19 0
    endloop
  endfacet
  facet normal -1 0 0
    outer loop
      vertex 3.01 1 0
      vertex 3.01 1.01643 7
      vertex 3.01 1.01643 0
    endloop
  endfacet
  facet normal -1 -0 0
    outer loop
      vertex 3.01 1.01643 7
      vertex 3.01 1 0
      vertex 3.01 1 7
    endloop
  endfacet
  facet normal 0 -1 0
    outer loop
      vertex 0 4.01 0
      vertex 0.00105096 4.01 7
      vertex 0 4.01 7
    endloop
  endfacet
  facet normal 0 -1 -0
    outer loop
      vertex 0.00105096 4.01 7
      vertex 0 4.01 0
      vertex 0.00105096 4.01 0
    endloop
  endfacet
  facet normal -0.994522 0.104528 0
    outer loop
      vertex 0 4 0
      vertex 0.00105096 4.01 7
      vertex 0.00105096 4.01 0
    endloop
  endfacet
  facet normal -0.994522 0.104528 0
    outer loop
      vertex 0.00105096 4.01 7
      vertex 0 4 0
      vertex 0 4 7
    endloop
  endfacet
  facet normal -0.994522 -0.104527 0
    outer loop
      vertex 0.0655565 3.37626 0
      vertex 0 4 7
      vertex 0 4 0
    endloop
  endfacet
  facet normal -0.994522 -0.104527 0
    outer loop
      vertex 0 4 7
      vertex 0.0655565 3.37626 0
      vertex 0.0655565 3.37626 7
    endloop
  endfacet
  facet normal -0.743144 -0.669131 0
    outer loop
      vertex 0.992608 1.77057 0
      vertex 0.572948 2.23664 7
      vertex 0.572948 2.23664 0
    endloop
  endfacet
  facet normal -0.743144 -0.669131 0
    outer loop
      vertex 0.572948 2.23664 7
      vertex 0.992608 1.77057 0
      vertex 0.992608 1.77057 7
    endloop
  endfacet
  facet normal -0.587786 -0.809016 0
    outer loop
      vertex 0.992608 1.77057 0
      vertex 1.5 1.40192 7
      vertex 0.992608 1.77057 7
    endloop
  endfacet
  facet normal -0.587786 -0.809016 -0
    outer loop
      vertex 1.5 1.40192 7
      vertex 0.992608 1.77057 0
      vertex 1.5 1.40192 0
    endloop
  endfacet
  facet normal -0.951056 -0.309017 0
    outer loop
      vertex 0.259363 2.77979 0
      vertex 0.0655565 3.37626 7
      vertex 0.0655565 3.37626 0
    endloop
  endfacet
  facet normal -0.951056 -0.309017 0
    outer loop
      vertex 0.0655565 3.37626 7
      vertex 0.259363 2.77979 0
      vertex 0.259363 2.77979 7
    endloop
  endfacet
  facet normal 0 -1 0
    outer loop
      vertex 2.68641 1.01643 0
      vertex 3.01 1.01643 7
      vertex 2.68641 1.01643 7
    endloop
  endfacet
  facet normal 0 -1 -0
    outer loop
      vertex 3.01 1.01643 7
      vertex 2.68641 1.01643 0
      vertex 3.01 1.01643 0
    endloop
  endfacet
  facet normal -0.866026 -0.5 0
    outer loop
      vertex 0.572948 2.23664 0
      vertex 0.259363 2.77979 7
      vertex 0.259363 2.77979 0
    endloop
  endfacet
  facet normal -0.866026 -0.5 0
    outer loop
      vertex 0.259363 2.77979 7
      vertex 0.572948 2.23664 0
      vertex 0.572948 2.23664 7
    endloop
  endfacet
  facet normal -0.207911 -0.978148 0
    outer loop
      vertex 2.07295 1.14683 0
      vertex 2.68641 1.01643 7
      vertex 2.07295 1.14683 7
    endloop
  endfacet
  facet normal -0.207911 -0.978148 -0
    outer loop
      vertex 2.68641 1.01643 7
      vertex 2.07295 1.14683 0
      vertex 2.68641 1.01643 0
    endloop
  endfacet
  facet normal -0.406737 -0.913545 0
    outer loop
      vertex 1.5 1.40192 0
      vertex 2.07295 1.14683 7
      vertex 1.5 1.40192 7
    endloop
  endfacet
  facet normal -0.406737 -0.913545 -0
    outer loop
      vertex 2.07295 1.14683 7
      vertex 1.5 1.40192 0
      vertex 2.07295 1.14683 0
    endloop
  endfacet
  facet normal 1 -0 0
    outer loop
      vertex 30.99 18.9836 7
      vertex 30.99 19 0
      vertex 30.99 19 7
    endloop
  endfacet
  facet normal 1 0 0
    outer loop
      vertex 30.99 19 0
      vertex 30.99 18.9836 7
      vertex 30.99 18.9836 0
    endloop
  endfacet
  facet normal 0 1 -0
    outer loop
      vertex 34 15.99 0
      vertex 33.9989 15.99 7
      vertex 34 15.99 7
    endloop
  endfacet
  facet normal 0 1 0
    outer loop
      vertex 33.9989 15.99 7
      vertex 34 15.99 0
      vertex 33.9989 15.99 0
    endloop
  endfacet
  facet normal 0.994502 -0.104714 0
    outer loop
      vertex 33.9989 15.99 7
      vertex 34 16 0
      vertex 34 16 7
    endloop
  endfacet
  facet normal 0.994502 -0.104714 0
    outer loop
      vertex 34 16 0
      vertex 33.9989 15.99 7
      vertex 33.9989 15.99 0
    endloop
  endfacet
  facet normal 0.994522 0.104526 0
    outer loop
      vertex 34 16 7
      vertex 33.9344 16.6237 0
      vertex 33.9344 16.6237 7
    endloop
  endfacet
  facet normal 0.994522 0.104526 0
    outer loop
      vertex 33.9344 16.6237 0
      vertex 34 16 7
      vertex 34 16 0
    endloop
  endfacet
  facet normal 0.743146 0.669129 0
    outer loop
      vertex 33.4271 17.7634 7
      vertex 33.0074 18.2294 0
      vertex 33.0074 18.2294 7
    endloop
  endfacet
  facet normal 0.743146 0.669129 0
    outer loop
      vertex 33.0074 18.2294 0
      vertex 33.4271 17.7634 7
      vertex 33.4271 17.7634 0
    endloop
  endfacet
  facet normal 0.587784 0.809018 -0
    outer loop
      vertex 33.0074 18.2294 0
      vertex 32.5 18.5981 7
      vertex 33.0074 18.2294 7
    endloop
  endfacet
  facet normal 0.587784 0.809018 0
    outer loop
      vertex 32.5 18.5981 7
      vertex 33.0074 18.2294 0
      vertex 32.5 18.5981 0
    endloop
  endfacet
  facet normal 0.951055 0.309021 0
    outer loop
      vertex 33.9344 16.6237 7
      vertex 33.7406 17.2202 0
      vertex 33.7406 17.2202 7
    endloop
  endfacet
  facet normal 0.951055 0.309021 0
    outer loop
      vertex 33.7406 17.2202 0
      vertex 33.9344 16.6237 7
      vertex 33.9344 16.6237 0
    endloop
  endfacet
  facet normal 0 1 -0
    outer loop
      vertex 31.3136 18.9836 0
      vertex 30.99 18.9836 7
      vertex 31.3136 18.9836 7
    endloop
  endfacet
  facet normal 0 1 0
    outer loop
      vertex 30.99 18.9836 7
      vertex 31.3136 18.9836 0
      vertex 30.99 18.9836 0
    endloop
  endfacet
  facet normal 0.866026 0.499999 0
    outer loop
      vertex 33.7406 17.2202 7
      vertex 33.4271 17.7634 0
      vertex 33.4271 17.7634 7
    endloop
  endfacet
  facet normal 0.866026 0.499999 0
    outer loop
      vertex 33.4271 17.7634 0
      vertex 33.7406 17.2202 7
      vertex 33.7406 17.2202 0
    endloop
  endfacet
  facet normal 0.207911 0.978148 -0
    outer loop
      vertex 31.9271 18.8532 0
      vertex 31.3136 18.9836 7
      vertex 31.9271 18.8532 7
    endloop
  endfacet
  facet normal 0.207911 0.978148 0
    outer loop
      vertex 31.3136 18.9836 7
      vertex 31.9271 18.8532 0
      vertex 31.3136 18.9836 0
    endloop
  endfacet
  facet normal 0.406739 0.913545 -0
    outer loop
      vertex 32.5 18.5981 0
      vertex 31.9271 18.8532 7
      vertex 32.5 18.5981 7
    endloop
  endfacet
  facet normal 0.406739 0.913545 0
    outer loop
      vertex 31.9271 18.8532 7
      vertex 32.5 18.5981 0
      vertex 31.9271 18.8532 0
    endloop
  endfacet
  facet normal -0.809016 -0.587786 0
    outer loop
      vertex 30.5 14 0.4
      vertex 29.4635 15.4266 7
      vertex 29.4635 15.4266 0.4
    endloop
  endfacet
  facet normal -0.809016 -0.587786 0
    outer loop
      vertex 29.4635 15.4266 7
      vertex 30.5 14 0.4
      vertex 30.5 14 7
    endloop
  endfacet
  facet normal 1 -0 0
    outer loop
      vertex 27.7865 13.1183 7
      vertex 27.7865 14.8817 0.4
      vertex 27.7865 14.8817 7
    endloop
  endfacet
  facet normal 1 0 0
    outer loop
      vertex 27.7865 14.8817 0.4
      vertex 27.7865 13.1183 7
      vertex 27.7865 13.1183 0.4
    endloop
  endfacet
  facet normal 0.309017 -0.951056 0
    outer loop
      vertex 27.7865 14.8817 0.4
      vertex 29.4635 15.4266 7
      vertex 27.7865 14.8817 7
    endloop
  endfacet
  facet normal 0.309017 -0.951056 0
    outer loop
      vertex 29.4635 15.4266 7
      vertex 27.7865 14.8817 0.4
      vertex 29.4635 15.4266 0.4
    endloop
  endfacet
  facet normal 0.309017 0.951056 -0
    outer loop
      vertex 29.4635 12.5734 0.4
      vertex 27.7865 13.1183 7
      vertex 29.4635 12.5734 7
    endloop
  endfacet
  facet normal 0.309017 0.951056 0
    outer loop
      vertex 27.7865 13.1183 7
      vertex 29.4635 12.5734 0.4
      vertex 27.7865 13.1183 0.4
    endloop
  endfacet
  facet normal 0 0 1
    outer loop
      vertex 29.4635 15.4266 0.4
      vertex 29.4635 12.5734 0.4
      vertex 30.5 14 0.4
    endloop
  endfacet
  facet normal -0 0 1
    outer loop
      vertex 27.7865 14.8817 0.4
      vertex 29.4635 12.5734 0.4
      vertex 29.4635 15.4266 0.4
    endloop
  endfacet
  facet normal 0 0 1
    outer loop
      vertex 29.4635 12.5734 0.4
      vertex 27.7865 14.8817 0.4
      vertex 27.7865 13.1183 0.4
    endloop
  endfacet
  facet normal -0.809017 0.587786 0
    outer loop
      vertex 29.4635 12.5734 0.4
      vertex 30.5 14 7
      vertex 30.5 14 0.4
    endloop
  endfacet
  facet normal -0.809017 0.587786 0
    outer loop
      vertex 30.5 14 7
      vertex 29.4635 12.5734 0.4
      vertex 29.4635 12.5734 7
    endloop
  endfacet
  facet normal 1 -0 0
    outer loop
      vertex 2 6.84828 7
      vertex 2 24 2
      vertex 2 24 7
    endloop
  endfacet
  facet normal 1 -0 0
    outer loop
      vertex 2 6.56366 5.75302
      vertex 2 24 2
      vertex 2 6.84828 7
    endloop
  endfacet
  facet normal 1 0 0
    outer loop
      vertex 2 5 2
      vertex 2 6.56366 5.75302
      vertex 2 5 5
    endloop
  endfacet
  facet normal 1 0 0
    outer loop
      vertex 2 6.56366 5.75302
      vertex 2 5 2
      vertex 2 24 2
    endloop
  endfacet
  facet normal -1 0 0
    outer loop
      vertex 22 24 2
      vertex 22 6.84828 7
      vertex 22 24 7
    endloop
  endfacet
  facet normal -1 0 0
    outer loop
      vertex 22 24 2
      vertex 22 6.56366 5.75302
      vertex 22 6.84828 7
    endloop
  endfacet
  facet normal -1 0 0
    outer loop
      vertex 22 5 2
      vertex 22 6.56366 5.75302
      vertex 22 24 2
    endloop
  endfacet
  facet normal -1 0 0
    outer loop
      vertex 22 6.56366 5.75302
      vertex 22 5 2
      vertex 22 5 5
    endloop
  endfacet
  facet normal -0 0 1
    outer loop
      vertex 2 24 2
      vertex 22 5 2
      vertex 22 24 2
    endloop
  endfacet
  facet normal 0 0 1
    outer loop
      vertex 22 5 2
      vertex 2 24 2
      vertex 2 5 2
    endloop
  endfacet
  facet normal 0 1 -0
    outer loop
      vertex 22 5 2
      vertex 2 5 5
      vertex 22 5 5
    endloop
  endfacet
  facet normal 0 1 0
    outer loop
      vertex 2 5 5
      vertex 22 5 2
      vertex 2 5 2
    endloop
  endfacet
  facet normal 1 1.44925e-07 2.53717e-07
    outer loop
      vertex 2 3.43634 5.75302
      vertex 2 4.54351 7
      vertex 2 3.72095 7
    endloop
  endfacet
  facet normal 1 1.28995e-07 2.67861e-07
    outer loop
      vertex 2 4.54351 7
      vertex 2 3.43634 5.75302
      vertex 2 5 5
    endloop
  endfacet
  facet normal 0 -0.433884 0.900969
    outer loop
      vertex 22 6.56366 5.75302
      vertex 39 5 5
      vertex 39 6.56366 5.75302
    endloop
  endfacet
  facet normal 0 -0.433884 0.900969
    outer loop
      vertex 39 5 5
      vertex 22 6.56366 5.75302
      vertex 22 5 5
    endloop
  endfacet
  facet normal 0 -0.974928 0.222521
    outer loop
      vertex 22 6.56366 5.75302
      vertex 39 6.84828 7
      vertex 22 6.84828 7
    endloop
  endfacet
  facet normal 0 -0.974928 0.222521
    outer loop
      vertex 39 6.84828 7
      vertex 22 6.56366 5.75302
      vertex 39 6.56366 5.75302
    endloop
  endfacet
  facet normal -0 0.433884 0.900969
    outer loop
      vertex 22 5 5
      vertex 39 3.43634 5.75302
      vertex 39 5 5
    endloop
  endfacet
  facet normal 0 0.433884 0.900969
    outer loop
      vertex 2 3.43634 5.75302
      vertex 22 5 5
      vertex 2 5 5
    endloop
  endfacet
  facet normal 0 0.433884 0.900969
    outer loop
      vertex 22 5 5
      vertex 2 3.43634 5.75302
      vertex 39 3.43634 5.75302
    endloop
  endfacet
  facet normal 1 -6.28265e-07 1.43398e-07
    outer loop
      vertex 2 6.56366 5.75302
      vertex 2 6.84828 7
      vertex 2 6.27905 7
    endloop
  endfacet
  facet normal 1 0 2.38419e-07
    outer loop
      vertex 2 5 5
      vertex 2 5.45649 7
      vertex 2 4.54351 7
    endloop
  endfacet
  facet normal 1 -1.44925e-07 2.53717e-07
    outer loop
      vertex 2 5.45649 7
      vertex 2 6.56366 5.75302
      vertex 2 6.27905 7
    endloop
  endfacet
  facet normal 1 -1.28995e-07 2.67861e-07
    outer loop
      vertex 2 6.56366 5.75302
      vertex 2 5.45649 7
      vertex 2 5 5
    endloop
  endfacet
  facet normal 1 6.28266e-07 1.43398e-07
    outer loop
      vertex 2 3.15172 7
      vertex 2 3.43634 5.75302
      vertex 2 3.72095 7
    endloop
  endfacet
  facet normal 0 0.974928 0.222521
    outer loop
      vertex 39 3.43634 5.75302
      vertex 2 3.15172 7
      vertex 39 3.15172 7
    endloop
  endfacet
  facet normal 0 0.974928 0.222521
    outer loop
      vertex 2 3.15172 7
      vertex 39 3.43634 5.75302
      vertex 2 3.43634 5.75302
    endloop
  endfacet
  facet normal -0 0 1
    outer loop
      vertex 0 24 7
      vertex 2 6.84828 7
      vertex 2 24 7
    endloop
  endfacet
  facet normal 0 0 1
    outer loop
      vertex 0 4.01 7
      vertex 2 6.84828 7
      vertex 0 24 7
    endloop
  endfacet
  facet normal 0 0 1
    outer loop
      vertex 0.00105096 4.01 7
      vertex 2 4.54351 7
      vertex 2 5.45649 7
    endloop
  endfacet
  facet normal 0 0 1
    outer loop
      vertex 2 6.84828 7
      vertex 0 4.01 7
      vertex 2 6.27905 7
    endloop
  endfacet
  facet normal 0 0 1
    outer loop
      vertex 0 4 7
      vertex 2 4.54351 7
      vertex 0.00105096 4.01 7
    endloop
  endfacet
  facet normal 0 0 1
    outer loop
      vertex 2 4.54351 7
      vertex 0.992608 1.77057 7
      vertex 1.5 1.40192 7
    endloop
  endfacet
  facet normal 0 0 1
    outer loop
      vertex 2 4.54351 7
      vertex 0.572948 2.23664 7
      vertex 0.992608 1.77057 7
    endloop
  endfacet
  facet normal 0 0 1
    outer loop
      vertex 2 4.54351 7
      vertex 0.259363 2.77979 7
      vertex 0.572948 2.23664 7
    endloop
  endfacet
  facet normal 0 0 1
    outer loop
      vertex 2 4.54351 7
      vertex 0.0655565 3.37626 7
      vertex 0.259363 2.77979 7
    endloop
  endfacet
  facet normal 0 -0 1
    outer loop
      vertex 0.00105096 4.01 7
      vertex 2 6.27905 7
      vertex 0 4.01 7
    endloop
  endfacet
  facet normal 0 0 1
    outer loop
      vertex 2 6.27905 7
      vertex 0.00105096 4.01 7
      vertex 2 5.45649 7
    endloop
  endfacet
  facet normal 0 0 1
    outer loop
      vertex 39 3.15172 7
      vertex 3.01 1.01643 7
      vertex 39 1 7
    endloop
  endfacet
  facet normal -0 0 1
    outer loop
      vertex 2 3.15172 7
      vertex 3.01 1.01643 7
      vertex 39 3.15172 7
    endloop
  endfacet
  facet normal 0 0 1
    outer loop
      vertex 3.01 1.01643 7
      vertex 2 3.15172 7
      vertex 2.68641 1.01643 7
    endloop
  endfacet
  facet normal 0 0 1
    outer loop
      vertex 2.68641 1.01643 7
      vertex 2 3.15172 7
      vertex 2.07295 1.14683 7
    endloop
  endfacet
  facet normal 0 0 1
    outer loop
      vertex 2 3.15172 7
      vertex 1.5 1.40192 7
      vertex 2.07295 1.14683 7
    endloop
  endfacet
  facet normal 0 0 1
    outer loop
      vertex 2 3.72095 7
      vertex 1.5 1.40192 7
      vertex 2 3.15172 7
    endloop
  endfacet
  facet normal 0 0 1
    outer loop
      vertex 1.5 1.40192 7
      vertex 2 3.72095 7
      vertex 2 4.54351 7
    endloop
  endfacet
  facet normal 0 0 1
    outer loop
      vertex 39 1 7
      vertex 3.01 1.01643 7
      vertex 3.01 1 7
    endloop
  endfacet
  facet normal 0 0 1
    outer loop
      vertex 2 4.54351 7
      vertex 0 4 7
      vertex 0.0655565 3.37626 7
    endloop
  endfacet
  facet normal 0 0 1
    outer loop
      vertex 24 24 7
      vertex 22 24 7
      vertex 24 19 7
    endloop
  endfacet
  facet normal -0 0 1
    outer loop
      vertex 24 19 7
      vertex 30.99 18.9836 7
      vertex 30.99 19 7
    endloop
  endfacet
  facet normal 0 0 1
    outer loop
      vertex 30.99 18.9836 7
      vertex 29.4635 15.4266 7
      vertex 30.5 14 7
    endloop
  endfacet
  facet normal 0 0 1
    outer loop
      vertex 30.99 18.9836 7
      vertex 27.7865 14.8817 7
      vertex 29.4635 15.4266 7
    endloop
  endfacet
  facet normal 0 0 1
    outer loop
      vertex 27.7865 14.8817 7
      vertex 24 19 7
      vertex 27.7865 13.1183 7
    endloop
  endfacet
  facet normal 0 0 1
    outer loop
      vertex 30.99 18.9836 7
      vertex 24 19 7
      vertex 27.7865 14.8817 7
    endloop
  endfacet
  facet normal 0 0 1
    outer loop
      vertex 34 16 7
      vertex 33.9344 16.6237 7
      vertex 33.9989 15.99 7
    endloop
  endfacet
  facet normal 0 0 1
    outer loop
      vertex 34 15.99 7
      vertex 33.9989 15.99 7
      vertex 34 9 7
    endloop
  endfacet
  facet normal -0 0 1
    outer loop
      vertex 34 9 7
      vertex 39 6.84828 7
      vertex 39 9 7
    endloop
  endfacet
  facet normal 0 0 1
    outer loop
      vertex 30.5 14 7
      vertex 33.9989 15.99 7
      vertex 33.9344 16.6237 7
    endloop
  endfacet
  facet normal 0 0 1
    outer loop
      vertex 30.5 14 7
      vertex 33.9344 16.6237 7
      vertex 33.7406 17.2202 7
    endloop
  endfacet
  facet normal 0 0 1
    outer loop
      vertex 30.5 14 7
      vertex 33.7406 17.2202 7
      vertex 33.4271 17.7634 7
    endloop
  endfacet
  facet normal 0 0 1
    outer loop
      vertex 30.5 14 7
      vertex 33.4271 17.7634 7
      vertex 33.0074 18.2294 7
    endloop
  endfacet
  facet normal 0 0 1
    outer loop
      vertex 30.5 14 7
      vertex 33.0074 18.2294 7
      vertex 32.5 18.5981 7
    endloop
  endfacet
  facet normal 0 0 1
    outer loop
      vertex 30.5 14 7
      vertex 32.5 18.5981 7
      vertex 31.9271 18.8532 7
    endloop
  endfacet
  facet normal -0 0 1
    outer loop
      vertex 30.99 18.9836 7
      vertex 31.9271 18.8532 7
      vertex 31.3136 18.9836 7
    endloop
  endfacet
  facet normal 0 0 1
    outer loop
      vertex 31.9271 18.8532 7
      vertex 30.99 18.9836 7
      vertex 30.5 14 7
    endloop
  endfacet
  facet normal 0 0 1
    outer loop
      vertex 33.9989 15.99 7
      vertex 30.5 14 7
      vertex 34 9 7
    endloop
  endfacet
  facet normal -0 0 1
    outer loop
      vertex 29.4635 12.5734 7
      vertex 34 9 7
      vertex 30.5 14 7
    endloop
  endfacet
  facet normal 0 0 1
    outer loop
      vertex 22 6.84828 7
      vertex 29.4635 12.5734 7
      vertex 27.7865 13.1183 7
    endloop
  endfacet
  facet normal 0 0 1
    outer loop
      vertex 34 9 7
      vertex 22 6.84828 7
      vertex 39 6.84828 7
    endloop
  endfacet
  facet normal 0 0 1
    outer loop
      vertex 29.4635 12.5734 7
      vertex 22 6.84828 7
      vertex 34 9 7
    endloop
  endfacet
  facet normal 0 0 1
    outer loop
      vertex 24 19 7
      vertex 22 6.84828 7
      vertex 27.7865 13.1183 7
    endloop
  endfacet
  facet normal 0 0 1
    outer loop
      vertex 22 6.84828 7
      vertex 24 19 7
      vertex 22 24 7
    endloop
  endfacet
  facet normal -1 0 0
    outer loop
      vertex 0 -24 2.81669e-15
      vertex 0 -4.01 7
      vertex 0 -4.01 3.68619e-16
    endloop
  endfacet
  facet normal -1 -0 0
    outer loop
      vertex 0 -4.01 7
      vertex 0 -24 2.81669e-15
      vertex 0 -24 7
    endloop
  endfacet
  facet normal 0 -1.22465e-16 -1
    outer loop
      vertex 0 -24 2.81669e-15
      vertex 24 -9 9.79717e-16
      vertex 24 -24 2.81669e-15
    endloop
  endfacet
  facet normal 1.19848e-24 -1.22465e-16 -1
    outer loop
      vertex 24 -9 9.79717e-16
      vertex 0.00105096 -4.01 3.68619e-16
      vertex 3.01 -1.01643 2.01255e-18
    endloop
  endfacet
  facet normal 1.39949e-24 -1.22465e-16 -1
    outer loop
      vertex 1.5 -1.40192 4.92214e-17
      vertex 3.01 -1.01643 2.01255e-18
      vertex 0.00105096 -4.01 3.68619e-16
    endloop
  endfacet
  facet normal -0 -1.22465e-16 -1
    outer loop
      vertex 3.01 -1.01643 2.01255e-18
      vertex 2.07295 -1.14683 1.79814e-17
      vertex 2.68641 -1.01643 2.01255e-18
    endloop
  endfacet
  facet normal -1.51811e-24 -1.22465e-16 -1
    outer loop
      vertex 3.01 -1.01643 2.01255e-18
      vertex 1.5 -1.40192 4.92214e-17
      vertex 2.07295 -1.14683 1.79814e-17
    endloop
  endfacet
  facet normal -5.19228e-24 -1.22465e-16 -1
    outer loop
      vertex 1.5 -1.40192 4.92214e-17
      vertex 0.00105096 -4.01 3.68619e-16
      vertex 0.992608 -1.77057 9.4367e-17
    endloop
  endfacet
  facet normal -1.06825e-23 -1.22465e-16 -1
    outer loop
      vertex 0.992608 -1.77057 9.4367e-17
      vertex 0.00105096 -4.01 3.68619e-16
      vertex 0.572948 -2.23664 1.51445e-16
    endloop
  endfacet
  facet normal 2.61417e-23 -1.22465e-16 -1
    outer loop
      vertex 0.572948 -2.23664 1.51445e-16
      vertex 0.00105096 -4.01 3.68619e-16
      vertex 0.259363 -2.77979 2.17961e-16
    endloop
  endfacet
  facet normal -1.56393e-22 -1.22465e-16 -1
    outer loop
      vertex 0.259363 -2.77979 2.17961e-16
      vertex 0.00105096 -4.01 3.68619e-16
      vertex 0.0655565 -3.37626 2.91008e-16
    endloop
  endfacet
  facet normal 2.33832e-24 -1.22465e-16 -1
    outer loop
      vertex 24 -9 9.79717e-16
      vertex 0 -24 2.81669e-15
      vertex 0.00105096 -4.01 3.68619e-16
    endloop
  endfacet
  facet normal -0 -1.22465e-16 -1
    outer loop
      vertex 0.00105096 -4.01 3.68619e-16
      vertex 0 -24 2.81669e-15
      vertex 0 -4.01 3.68619e-16
    endloop
  endfacet
  facet normal 0 -1.22465e-16 -1
    outer loop
      vertex 24 -9 9.79717e-16
      vertex 39 -1 0
      vertex 39 -9 9.79717e-16
    endloop
  endfacet
  facet normal 4.01855e-24 -1.22465e-16 -1
    outer loop
      vertex 3.01 -1 0
      vertex 24 -9 9.79717e-16
      vertex 3.01 -1.01643 2.01255e-18
    endloop
  endfacet
  facet normal 0 -1.22465e-16 -1
    outer loop
      vertex 24 -9 9.79717e-16
      vertex 3.01 -1 0
      vertex 39 -1 0
    endloop
  endfacet
  facet normal 6.53507e-21 -1.22465e-16 -1
    outer loop
      vertex 0.0655565 -3.37626 2.91008e-16
      vertex 0.00105096 -4.01 3.68619e-16
      vertex 0 -4 3.67394e-16
    endloop
  endfacet
  facet normal 1 0 0
    outer loop
      vertex 39 -6.84828 7
      vertex 39 -9 7
      vertex 39 -6.94986 6.55496
    endloop
  endfacet
  facet normal 1 0 0
    outer loop
      vertex 39 -4.13223 5.19806
      vertex 39 -1 7
      vertex 39 -3.05014 6.55496
    endloop
  endfacet
  facet normal 1 0 -0
    outer loop
      vertex 39 -3.05014 6.55496
      vertex 39 -1 7
      vertex 39 -3.15172 7
    endloop
  endfacet
  facet normal 1 0 0
    outer loop
      vertex 39 -1 7
      vertex 39 -4.13223 5.19806
      vertex 39 -1 0
    endloop
  endfacet
  facet normal 1 -0 0
    outer loop
      vertex 39 -5.86777 5.19806
      vertex 39 -1 0
      vertex 39 -4.13223 5.19806
    endloop
  endfacet
  facet normal 1 0 0
    outer loop
      vertex 39 -9 7
      vertex 39 -5.86777 5.19806
      vertex 39 -6.94986 6.55496
    endloop
  endfacet
  facet normal 1 0 0
    outer loop
      vertex 39 -9 9.79717e-16
      vertex 39 -5.86777 5.19806
      vertex 39 -9 7
    endloop
  endfacet
  facet normal 1 0 0
    outer loop
      vertex 39 -5.86777 5.19806
      vertex 39 -9 9.79717e-16
      vertex 39 -1 0
    endloop
  endfacet
  facet normal 0 1 -0
    outer loop
      vertex 39 -1 0
      vertex 3.01 -1 7
      vertex 39 -1 7
    endloop
  endfacet
  facet normal 0 1 0
    outer loop
      vertex 3.01 -1 7
      vertex 39 -1 0
      vertex 3.01 -1 0
    endloop
  endfacet
  facet normal 0 -1 0
    outer loop
      vertex 24 -9 3
      vertex 24 -9 9.79717e-16
      vertex 34 -9 3
    endloop
  endfacet
  facet normal 0 -1 0
    outer loop
      vertex 34 -9 3
      vertex 39 -9 7
      vertex 34 -9 7
    endloop
  endfacet
  facet normal 0 -1 0
    outer loop
      vertex 34 -9 3
      vertex 39 -9 9.79717e-16
      vertex 39 -9 7
    endloop
  endfacet
  facet normal 0 -1 0
    outer loop
      vertex 39 -9 9.79717e-16
      vertex 34 -9 3
      vertex 24 -9 9.79717e-16
    endloop
  endfacet
  facet normal 1 0 0
    outer loop
      vertex 24 -19 7
      vertex 24 -24 7
      vertex 24 -19 3
    endloop
  endfacet
  facet normal 1 -0 0
    outer loop
      vertex 24 -19 3
      vertex 24 -9 9.79717e-16
      vertex 24 -9 3
    endloop
  endfacet
  facet normal 1 0 0
    outer loop
      vertex 24 -19 3
      vertex 24 -24 2.81669e-15
      vertex 24 -9 9.79717e-16
    endloop
  endfacet
  facet normal 1 0 0
    outer loop
      vertex 24 -24 2.81669e-15
      vertex 24 -19 3
      vertex 24 -24 7
    endloop
  endfacet
  facet normal 0 -1 0
    outer loop
      vertex 0 -24 7
      vertex 2 -24 2
      vertex 2 -24 7
    endloop
  endfacet
  facet normal 0 -1 -0
    outer loop
      vertex 2 -24 2
      vertex 0 -24 2.81669e-15
      vertex 22 -24 2
    endloop
  endfacet
  facet normal 0 -1 0
    outer loop
      vertex 0 -24 2.81669e-15
      vertex 2 -24 2
      vertex 0 -24 7
    endloop
  endfacet
  facet normal 0 -1 0
    outer loop
      vertex 22 -24 2
      vertex 24 -24 7
      vertex 22 -24 7
    endloop
  endfacet
  facet normal 0 -1 0
    outer loop
      vertex 22 -24 2
      vertex 24 -24 2.81669e-15
      vertex 24 -24 7
    endloop
  endfacet
  facet normal 0 -1 0
    outer loop
      vertex 24 -24 2.81669e-15
      vertex 22 -24 2
      vertex 0 -24 2.81669e-15
    endloop
  endfacet
  facet normal 0 0 -1
    outer loop
      vertex 24 -19 3
      vertex 30.99 -18.9836 3
      vertex 30.99 -19 3
    endloop
  endfacet
  facet normal 0 0 -1
    outer loop
      vertex 30.99 -18.9836 3
      vertex 29.4635 -15.4266 3
      vertex 30.5 -14 3
    endloop
  endfacet
  facet normal 0 0 -1
    outer loop
      vertex 30.99 -18.9836 3
      vertex 27.7865 -14.8817 3
      vertex 29.4635 -15.4266 3
    endloop
  endfacet
  facet normal -0 0 -1
    outer loop
      vertex 27.7865 -14.8817 3
      vertex 24 -19 3
      vertex 27.7865 -13.1183 3
    endloop
  endfacet
  facet normal -0 0 -1
    outer loop
      vertex 30.99 -18.9836 3
      vertex 24 -19 3
      vertex 27.7865 -14.8817 3
    endloop
  endfacet
  facet normal -0 0 -1
    outer loop
      vertex 34 -16 3
      vertex 33.9344 -16.6237 3
      vertex 33.9989 -15.99 3
    endloop
  endfacet
  facet normal 0 0 -1
    outer loop
      vertex 33.9989 -15.99 3
      vertex 34 -9 3
      vertex 34 -15.99 3
    endloop
  endfacet
  facet normal 0 0 -1
    outer loop
      vertex 30.5 -14 3
      vertex 33.9989 -15.99 3
      vertex 33.9344 -16.6237 3
    endloop
  endfacet
  facet normal 0 0 -1
    outer loop
      vertex 30.5 -14 3
      vertex 33.9344 -16.6237 3
      vertex 33.7406 -17.2202 3
    endloop
  endfacet
  facet normal 0 0 -1
    outer loop
      vertex 30.5 -14 3
      vertex 33.7406 -17.2202 3
      vertex 33.4271 -17.7634 3
    endloop
  endfacet
  facet normal 0 0 -1
    outer loop
      vertex 30.5 -14 3
      vertex 33.4271 -17.7634 3
      vertex 33.0074 -18.2294 3
    endloop
  endfacet
  facet normal 0 0 -1
    outer loop
      vertex 30.5 -14 3
      vertex 33.0074 -18.2294 3
      vertex 32.5 -18.5981 3
    endloop
  endfacet
  facet normal 0 0 -1
    outer loop
      vertex 30.5 -14 3
      vertex 32.5 -18.5981 3
      vertex 31.9271 -18.8532 3
    endloop
  endfacet
  facet normal 0 0 -1
    outer loop
      vertex 30.99 -18.9836 3
      vertex 31.9271 -18.8532 3
      vertex 31.3136 -18.9836 3
    endloop
  endfacet
  facet normal -0 0 -1
    outer loop
      vertex 31.9271 -18.8532 3
      vertex 30.99 -18.9836 3
      vertex 30.5 -14 3
    endloop
  endfacet
  facet normal 0 0 -1
    outer loop
      vertex 33.9989 -15.99 3
      vertex 30.5 -14 3
      vertex 34 -9 3
    endloop
  endfacet
  facet normal 0 0 -1
    outer loop
      vertex 29.4635 -12.5734 3
      vertex 34 -9 3
      vertex 30.5 -14 3
    endloop
  endfacet
  facet normal 0 0 -1
    outer loop
      vertex 24 -9 3
      vertex 29.4635 -12.5734 3
      vertex 27.7865 -13.1183 3
    endloop
  endfacet
  facet normal 0 0 -1
    outer loop
      vertex 29.4635 -12.5734 3
      vertex 24 -9 3
      vertex 34 -9 3
    endloop
  endfacet
  facet normal 0 0 -1
    outer loop
      vertex 24 -9 3
      vertex 27.7865 -13.1183 3
      vertex 24 -19 3
    endloop
  endfacet
  facet normal 1 -0 0
    outer loop
      vertex 34 -15.99 7
      vertex 34 -9 3
      vertex 34 -9 7
    endloop
  endfacet
  facet normal 1 0 0
    outer loop
      vertex 34 -9 3
      vertex 34 -15.99 7
      vertex 34 -15.99 3
    endloop
  endfacet
  facet normal 0 -1 0
    outer loop
      vertex 24 -19 3
      vertex 30.99 -19 7
      vertex 24 -19 7
    endloop
  endfacet
  facet normal 0 -1 -0
    outer loop
      vertex 30.99 -19 7
      vertex 24 -19 3
      vertex 30.99 -19 3
    endloop
  endfacet
  facet normal -1 0 0
    outer loop
      vertex 3.01 -1.01643 2.01255e-18
      vertex 3.01 -1 7
      vertex 3.01 -1 0
    endloop
  endfacet
  facet normal -1 -0 0
    outer loop
      vertex 3.01 -1 7
      vertex 3.01 -1.01643 2.01255e-18
      vertex 3.01 -1.01643 7
    endloop
  endfacet
  facet normal 0 1 -0
    outer loop
      vertex 0.00105096 -4.01 3.68619e-16
      vertex 0 -4.01 7
      vertex 0.00105096 -4.01 7
    endloop
  endfacet
  facet normal 0 1 0
    outer loop
      vertex 0 -4.01 7
      vertex 0.00105096 -4.01 3.68619e-16
      vertex 0 -4.01 3.68619e-16
    endloop
  endfacet
  facet normal -0.994522 -0.104528 0
    outer loop
      vertex 0.00105096 -4.01 3.68619e-16
      vertex 0 -4 7
      vertex 0 -4 3.67394e-16
    endloop
  endfacet
  facet normal -0.994522 -0.104528 0
    outer loop
      vertex 0 -4 7
      vertex 0.00105096 -4.01 3.68619e-16
      vertex 0.00105096 -4.01 7
    endloop
  endfacet
  facet normal -0.994522 0.104527 0
    outer loop
      vertex 0 -4 3.67394e-16
      vertex 0.0655565 -3.37626 7
      vertex 0.0655565 -3.37626 2.91008e-16
    endloop
  endfacet
  facet normal -0.994522 0.104527 0
    outer loop
      vertex 0.0655565 -3.37626 7
      vertex 0 -4 3.67394e-16
      vertex 0 -4 7
    endloop
  endfacet
  facet normal -0.743144 0.669131 0
    outer loop
      vertex 0.572948 -2.23664 1.51445e-16
      vertex 0.992608 -1.77057 7
      vertex 0.992608 -1.77057 9.4367e-17
    endloop
  endfacet
  facet normal -0.743144 0.669131 0
    outer loop
      vertex 0.992608 -1.77057 7
      vertex 0.572948 -2.23664 1.51445e-16
      vertex 0.572948 -2.23664 7
    endloop
  endfacet
  facet normal -0.587786 0.809016 0
    outer loop
      vertex 1.5 -1.40192 7
      vertex 0.992608 -1.77057 9.4367e-17
      vertex 0.992608 -1.77057 7
    endloop
  endfacet
  facet normal -0.587786 0.809016 0
    outer loop
      vertex 0.992608 -1.77057 9.4367e-17
      vertex 1.5 -1.40192 7
      vertex 1.5 -1.40192 4.92214e-17
    endloop
  endfacet
  facet normal -0.951056 0.309017 0
    outer loop
      vertex 0.0655565 -3.37626 2.91008e-16
      vertex 0.259363 -2.77979 7
      vertex 0.259363 -2.77979 2.17961e-16
    endloop
  endfacet
  facet normal -0.951056 0.309017 0
    outer loop
      vertex 0.259363 -2.77979 7
      vertex 0.0655565 -3.37626 2.91008e-16
      vertex 0.0655565 -3.37626 7
    endloop
  endfacet
  facet normal 0 1 -0
    outer loop
      vertex 3.01 -1.01643 2.01255e-18
      vertex 2.68641 -1.01643 7
      vertex 3.01 -1.01643 7
    endloop
  endfacet
  facet normal 0 1 0
    outer loop
      vertex 2.68641 -1.01643 7
      vertex 3.01 -1.01643 2.01255e-18
      vertex 2.68641 -1.01643 2.01255e-18
    endloop
  endfacet
  facet normal -0.866026 0.5 0
    outer loop
      vertex 0.259363 -2.77979 2.17961e-16
      vertex 0.572948 -2.23664 7
      vertex 0.572948 -2.23664 1.51445e-16
    endloop
  endfacet
  facet normal -0.866026 0.5 0
    outer loop
      vertex 0.572948 -2.23664 7
      vertex 0.259363 -2.77979 2.17961e-16
      vertex 0.259363 -2.77979 7
    endloop
  endfacet
  facet normal -0.207911 0.978148 0
    outer loop
      vertex 2.68641 -1.01643 7
      vertex 2.07295 -1.14683 1.79814e-17
      vertex 2.07295 -1.14683 7
    endloop
  endfacet
  facet normal -0.207911 0.978148 0
    outer loop
      vertex 2.07295 -1.14683 1.79814e-17
      vertex 2.68641 -1.01643 7
      vertex 2.68641 -1.01643 2.01255e-18
    endloop
  endfacet
  facet normal -0.406737 0.913545 0
    outer loop
      vertex 2.07295 -1.14683 7
      vertex 1.5 -1.40192 4.92214e-17
      vertex 1.5 -1.40192 7
    endloop
  endfacet
  facet normal -0.406737 0.913545 0
    outer loop
      vertex 1.5 -1.40192 4.92214e-17
      vertex 2.07295 -1.14683 7
      vertex 2.07295 -1.14683 1.79814e-17
    endloop
  endfacet
  facet normal 1 -0 0
    outer loop
      vertex 30.99 -19 7
      vertex 30.99 -18.9836 3
      vertex 30.99 -18.9836 7
    endloop
  endfacet
  facet normal 1 0 0
    outer loop
      vertex 30.99 -18.9836 3
      vertex 30.99 -19 7
      vertex 30.99 -19 3
    endloop
  endfacet
  facet normal 0 -1 0
    outer loop
      vertex 33.9989 -15.99 3
      vertex 34 -15.99 7
      vertex 33.9989 -15.99 7
    endloop
  endfacet
  facet normal 0 -1 -0
    outer loop
      vertex 34 -15.99 7
      vertex 33.9989 -15.99 3
      vertex 34 -15.99 3
    endloop
  endfacet
  facet normal 0.994502 0.104714 0
    outer loop
      vertex 34 -16 7
      vertex 33.9989 -15.99 3
      vertex 33.9989 -15.99 7
    endloop
  endfacet
  facet normal 0.994502 0.104714 0
    outer loop
      vertex 33.9989 -15.99 3
      vertex 34 -16 7
      vertex 34 -16 3
    endloop
  endfacet
  facet normal 0.994522 -0.104526 0
    outer loop
      vertex 33.9344 -16.6237 7
      vertex 34 -16 3
      vertex 34 -16 7
    endloop
  endfacet
  facet normal 0.994522 -0.104526 0
    outer loop
      vertex 34 -16 3
      vertex 33.9344 -16.6237 7
      vertex 33.9344 -16.6237 3
    endloop
  endfacet
  facet normal 0.743146 -0.669129 0
    outer loop
      vertex 33.0074 -18.2294 7
      vertex 33.4271 -17.7634 3
      vertex 33.4271 -17.7634 7
    endloop
  endfacet
  facet normal 0.743146 -0.669129 0
    outer loop
      vertex 33.4271 -17.7634 3
      vertex 33.0074 -18.2294 7
      vertex 33.0074 -18.2294 3
    endloop
  endfacet
  facet normal 0.587784 -0.809018 0
    outer loop
      vertex 32.5 -18.5981 3
      vertex 33.0074 -18.2294 7
      vertex 32.5 -18.5981 7
    endloop
  endfacet
  facet normal 0.587784 -0.809018 0
    outer loop
      vertex 33.0074 -18.2294 7
      vertex 32.5 -18.5981 3
      vertex 33.0074 -18.2294 3
    endloop
  endfacet
  facet normal 0.951055 -0.309021 0
    outer loop
      vertex 33.7406 -17.2202 7
      vertex 33.9344 -16.6237 3
      vertex 33.9344 -16.6237 7
    endloop
  endfacet
  facet normal 0.951055 -0.309021 0
    outer loop
      vertex 33.9344 -16.6237 3
      vertex 33.7406 -17.2202 7
      vertex 33.7406 -17.2202 3
    endloop
  endfacet
  facet normal 0 -1 0
    outer loop
      vertex 30.99 -18.9836 3
      vertex 31.3136 -18.9836 7
      vertex 30.99 -18.9836 7
    endloop
  endfacet
  facet normal 0 -1 -0
    outer loop
      vertex 31.3136 -18.9836 7
      vertex 30.99 -18.9836 3
      vertex 31.3136 -18.9836 3
    endloop
  endfacet
  facet normal 0.866026 -0.499999 0
    outer loop
      vertex 33.4271 -17.7634 7
      vertex 33.7406 -17.2202 3
      vertex 33.7406 -17.2202 7
    endloop
  endfacet
  facet normal 0.866026 -0.499999 0
    outer loop
      vertex 33.7406 -17.2202 3
      vertex 33.4271 -17.7634 7
      vertex 33.4271 -17.7634 3
    endloop
  endfacet
  facet normal 0.207911 -0.978148 0
    outer loop
      vertex 31.3136 -18.9836 3
      vertex 31.9271 -18.8532 7
      vertex 31.3136 -18.9836 7
    endloop
  endfacet
  facet normal 0.207911 -0.978148 0
    outer loop
      vertex 31.9271 -18.8532 7
      vertex 31.3136 -18.9836 3
      vertex 31.9271 -18.8532 3
    endloop
  endfacet
  facet normal 0.406739 -0.913545 0
    outer loop
      vertex 31.9271 -18.8532 3
      vertex 32.5 -18.5981 7
      vertex 31.9271 -18.8532 7
    endloop
  endfacet
  facet normal 0.406739 -0.913545 0
    outer loop
      vertex 32.5 -18.5981 7
      vertex 31.9271 -18.8532 3
      vertex 32.5 -18.5981 3
    endloop
  endfacet
  facet normal -0.809016 0.587786 0
    outer loop
      vertex 29.4635 -15.4266 3
      vertex 30.5 -14 7
      vertex 30.5 -14 3
    endloop
  endfacet
  facet normal -0.809016 0.587786 0
    outer loop
      vertex 30.5 -14 7
      vertex 29.4635 -15.4266 3
      vertex 29.4635 -15.4266 7
    endloop
  endfacet
  facet normal 1 -0 0
    outer loop
      vertex 27.7865 -14.8817 7
      vertex 27.7865 -13.1183 3
      vertex 27.7865 -13.1183 7
    endloop
  endfacet
  facet normal 1 0 0
    outer loop
      vertex 27.7865 -13.1183 3
      vertex 27.7865 -14.8817 7
      vertex 27.7865 -14.8817 3
    endloop
  endfacet
  facet normal 0.309017 0.951056 -0
    outer loop
      vertex 29.4635 -15.4266 3
      vertex 27.7865 -14.8817 7
      vertex 29.4635 -15.4266 7
    endloop
  endfacet
  facet normal 0.309017 0.951056 0
    outer loop
      vertex 27.7865 -14.8817 7
      vertex 29.4635 -15.4266 3
      vertex 27.7865 -14.8817 3
    endloop
  endfacet
  facet normal 0.309017 -0.951056 0
    outer loop
      vertex 27.7865 -13.1183 3
      vertex 29.4635 -12.5734 7
      vertex 27.7865 -13.1183 7
    endloop
  endfacet
  facet normal 0.309017 -0.951056 0
    outer loop
      vertex 29.4635 -12.5734 7
      vertex 27.7865 -13.1183 3
      vertex 29.4635 -12.5734 3
    endloop
  endfacet
  facet normal -0.809017 -0.587786 0
    outer loop
      vertex 30.5 -14 3
      vertex 29.4635 -12.5734 7
      vertex 29.4635 -12.5734 3
    endloop
  endfacet
  facet normal -0.809017 -0.587786 0
    outer loop
      vertex 29.4635 -12.5734 7
      vertex 30.5 -14 3
      vertex 30.5 -14 7
    endloop
  endfacet
  facet normal 1 0 0
    outer loop
      vertex 2 -6.84828 7
      vertex 2 -24 7
      vertex 2 -6.94986 6.55496
    endloop
  endfacet
  facet normal 1 -0 0
    outer loop
      vertex 2 -5.86777 5.19806
      vertex 2 -5 2
      vertex 2 -5 5.19806
    endloop
  endfacet
  facet normal 1 0 0
    outer loop
      vertex 2 -6.94986 6.55496
      vertex 2 -5 2
      vertex 2 -5.86777 5.19806
    endloop
  endfacet
  facet normal 1 0 0
    outer loop
      vertex 2 -24 2
      vertex 2 -6.94986 6.55496
      vertex 2 -24 7
    endloop
  endfacet
  facet normal 1 0 0
    outer loop
      vertex 2 -6.94986 6.55496
      vertex 2 -24 2
      vertex 2 -5 2
    endloop
  endfacet
  facet normal -0 0 1
    outer loop
      vertex 2 -5 2
      vertex 22 -24 2
      vertex 22 -5 2
    endloop
  endfacet
  facet normal 0 0 1
    outer loop
      vertex 22 -24 2
      vertex 2 -5 2
      vertex 2 -24 2
    endloop
  endfacet
  facet normal -1 0 0
    outer loop
      vertex 22 -5 2
      vertex 22 -5.86777 5.19806
      vertex 22 -5 5.19806
    endloop
  endfacet
  facet normal -1 0 0
    outer loop
      vertex 22 -5 2
      vertex 22 -6.94986 6.55496
      vertex 22 -5.86777 5.19806
    endloop
  endfacet
  facet normal -1 0 -0
    outer loop
      vertex 22 -6.94986 6.55496
      vertex 22 -5 2
      vertex 22 -24 2
    endloop
  endfacet
  facet normal -1 0 0
    outer loop
      vertex 22 -24 7
      vertex 22 -6.94986 6.55496
      vertex 22 -24 2
    endloop
  endfacet
  facet normal -1 0 0
    outer loop
      vertex 22 -6.94986 6.55496
      vertex 22 -24 7
      vertex 22 -6.84828 7
    endloop
  endfacet
  facet normal 0 -1 0
    outer loop
      vertex 2 -5 2
      vertex 22 -5 5.19806
      vertex 2 -5 5.19806
    endloop
  endfacet
  facet normal 0 -1 -0
    outer loop
      vertex 22 -5 5.19806
      vertex 2 -5 2
      vertex 22 -5 2
    endloop
  endfacet
  facet normal 1 -1.44925e-07 -2.97703e-07
    outer loop
      vertex 2 -3.72095 7
      vertex 2 -4.54351 7
      vertex 2 -4.13223 5.19806
    endloop
  endfacet
  facet normal 0 0 1
    outer loop
      vertex 39 -4.13223 5.19806
      vertex 22 -5 5.19806
      vertex 39 -5.86777 5.19806
    endloop
  endfacet
  facet normal -0 0 1
    outer loop
      vertex 2 -4.13223 5.19806
      vertex 22 -5 5.19806
      vertex 39 -4.13223 5.19806
    endloop
  endfacet
  facet normal 0 0 1
    outer loop
      vertex 22 -5 5.19806
      vertex 2 -4.13223 5.19806
      vertex 2 -5 5.19806
    endloop
  endfacet
  facet normal 0 0 1
    outer loop
      vertex 2 -5.86777 5.19806
      vertex 2 -5 5.19806
      vertex 2 -4.13223 5.19806
    endloop
  endfacet
  facet normal 0 0 1
    outer loop
      vertex 39 -5.86777 5.19806
      vertex 22 -5 5.19806
      vertex 22 -5.86777 5.19806
    endloop
  endfacet
  facet normal 0 0.974928 -0.222521
    outer loop
      vertex 39 -6.94986 6.55496
      vertex 22 -6.84828 7
      vertex 39 -6.84828 7
    endloop
  endfacet
  facet normal 0 0.974928 -0.222521
    outer loop
      vertex 22 -6.84828 7
      vertex 39 -6.94986 6.55496
      vertex 22 -6.94986 6.55496
    endloop
  endfacet
  facet normal 0 -0.781831 0.62349
    outer loop
      vertex 2 -4.13223 5.19806
      vertex 39 -3.05014 6.55496
      vertex 2 -3.05014 6.55496
    endloop
  endfacet
  facet normal 0 -0.781831 0.62349
    outer loop
      vertex 39 -3.05014 6.55496
      vertex 2 -4.13223 5.19806
      vertex 39 -4.13223 5.19806
    endloop
  endfacet
  facet normal 0 0.781831 0.62349
    outer loop
      vertex 39 -5.86777 5.19806
      vertex 22 -6.94986 6.55496
      vertex 39 -6.94986 6.55496
    endloop
  endfacet
  facet normal 0 0.781831 0.62349
    outer loop
      vertex 22 -6.94986 6.55496
      vertex 39 -5.86777 5.19806
      vertex 22 -5.86777 5.19806
    endloop
  endfacet
  facet normal 1 6.28265e-07 -1.43397e-07
    outer loop
      vertex 2 -6.94986 6.55496
      vertex 2 -6.27905 7
      vertex 2 -6.84828 7
    endloop
  endfacet
  facet normal 1 6.5361e-07 -1.81599e-07
    outer loop
      vertex 2 -6.27905 7
      vertex 2 -6.94986 6.55496
      vertex 2 -5.86777 5.19806
    endloop
  endfacet
  facet normal 1 0 -2.64625e-07
    outer loop
      vertex 2 -5.45649 7
      vertex 2 -4.13223 5.19806
      vertex 2 -4.54351 7
    endloop
  endfacet
  facet normal 1 0 -2.64625e-07
    outer loop
      vertex 2 -4.13223 5.19806
      vertex 2 -5.45649 7
      vertex 2 -5.86777 5.19806
    endloop
  endfacet
  facet normal 1 1.44925e-07 -2.97703e-07
    outer loop
      vertex 2 -5.45649 7
      vertex 2 -6.27905 7
      vertex 2 -5.86777 5.19806
    endloop
  endfacet
  facet normal 1 -6.28266e-07 -1.43398e-07
    outer loop
      vertex 2 -3.72095 7
      vertex 2 -3.05014 6.55496
      vertex 2 -3.15172 7
    endloop
  endfacet
  facet normal 1 -6.5361e-07 -1.81599e-07
    outer loop
      vertex 2 -3.05014 6.55496
      vertex 2 -3.72095 7
      vertex 2 -4.13223 5.19806
    endloop
  endfacet
  facet normal 0 -0.974928 -0.222521
    outer loop
      vertex 2 -3.05014 6.55496
      vertex 39 -3.15172 7
      vertex 2 -3.15172 7
    endloop
  endfacet
  facet normal 0 -0.974928 -0.222521
    outer loop
      vertex 39 -3.15172 7
      vertex 2 -3.05014 6.55496
      vertex 39 -3.05014 6.55496
    endloop
  endfacet
  facet normal 0 0 1
    outer loop
      vertex 3.01 -1.01643 7
      vertex 39 -1 7
      vertex 3.01 -1 7
    endloop
  endfacet
  facet normal 0 0 1
    outer loop
      vertex 39 -1 7
      vertex 3.01 -1.01643 7
      vertex 39 -3.15172 7
    endloop
  endfacet
  facet normal 0 0 1
    outer loop
      vertex 2 -3.15172 7
      vertex 3.01 -1.01643 7
      vertex 2.68641 -1.01643 7
    endloop
  endfacet
  facet normal 0 0 1
    outer loop
      vertex 2 -3.15172 7
      vertex 2.68641 -1.01643 7
      vertex 2.07295 -1.14683 7
    endloop
  endfacet
  facet normal 0 0 1
    outer loop
      vertex 3.01 -1.01643 7
      vertex 2 -3.15172 7
      vertex 39 -3.15172 7
    endloop
  endfacet
  facet normal -0 0 1
    outer loop
      vertex 0.259363 -2.77979 7
      vertex 2 -3.15172 7
      vertex 0.572948 -2.23664 7
    endloop
  endfacet
  facet normal -0 0 1
    outer loop
      vertex 0.572948 -2.23664 7
      vertex 2 -3.15172 7
      vertex 0.992608 -1.77057 7
    endloop
  endfacet
  facet normal -0 0 1
    outer loop
      vertex 0.992608 -1.77057 7
      vertex 2 -3.15172 7
      vertex 1.5 -1.40192 7
    endloop
  endfacet
  facet normal -0 0 1
    outer loop
      vertex 1.5 -1.40192 7
      vertex 2 -3.15172 7
      vertex 2.07295 -1.14683 7
    endloop
  endfacet
  facet normal 0 0 1
    outer loop
      vertex 0 -4.01 7
      vertex 2 -6.84828 7
      vertex 2 -6.27905 7
    endloop
  endfacet
  facet normal 0 0 1
    outer loop
      vertex 0.00105096 -4.01 7
      vertex 2 -6.27905 7
      vertex 2 -5.45649 7
    endloop
  endfacet
  facet normal 0 0 1
    outer loop
      vertex 0.0655565 -3.37626 7
      vertex 2 -3.15172 7
      vertex 0.259363 -2.77979 7
    endloop
  endfacet
  facet normal 0 0 1
    outer loop
      vertex 2 -3.15172 7
      vertex 0.0655565 -3.37626 7
      vertex 2 -3.72095 7
    endloop
  endfacet
  facet normal 0 0 1
    outer loop
      vertex 0 -4 7
      vertex 2 -3.72095 7
      vertex 0.0655565 -3.37626 7
    endloop
  endfacet
  facet normal 0 -0 1
    outer loop
      vertex 0.00105096 -4.01 7
      vertex 2 -3.72095 7
      vertex 0 -4 7
    endloop
  endfacet
  facet normal 0 0 1
    outer loop
      vertex 2 -4.54351 7
      vertex 0.00105096 -4.01 7
      vertex 2 -5.45649 7
    endloop
  endfacet
  facet normal 0 0 1
    outer loop
      vertex 2 -6.27905 7
      vertex 0.00105096 -4.01 7
      vertex 0 -4.01 7
    endloop
  endfacet
  facet normal 0 0 1
    outer loop
      vertex 2 -6.84828 7
      vertex 0 -4.01 7
      vertex 0 -24 7
    endloop
  endfacet
  facet normal 0 0 1
    outer loop
      vertex 2 -6.84828 7
      vertex 0 -24 7
      vertex 2 -24 7
    endloop
  endfacet
  facet normal 0 0 1
    outer loop
      vertex 2 -3.72095 7
      vertex 0.00105096 -4.01 7
      vertex 2 -4.54351 7
    endloop
  endfacet
  facet normal 0 0 1
    outer loop
      vertex 39 -6.84828 7
      vertex 34 -9 7
      vertex 39 -9 7
    endloop
  endfacet
  facet normal 0 0 1
    outer loop
      vertex 34 -9 7
      vertex 33.9989 -15.99 7
      vertex 34 -15.99 7
    endloop
  endfacet
  facet normal -0 0 1
    outer loop
      vertex 30.5 -14 7
      vertex 33.9989 -15.99 7
      vertex 34 -9 7
    endloop
  endfacet
  facet normal -0 0 1
    outer loop
      vertex 29.4635 -15.4266 7
      vertex 33.9989 -15.99 7
      vertex 30.5 -14 7
    endloop
  endfacet
  facet normal 0 0 1
    outer loop
      vertex 33.9989 -15.99 7
      vertex 29.4635 -15.4266 7
      vertex 33.9344 -16.6237 7
    endloop
  endfacet
  facet normal 0 0 1
    outer loop
      vertex 33.9344 -16.6237 7
      vertex 29.4635 -15.4266 7
      vertex 33.7406 -17.2202 7
    endloop
  endfacet
  facet normal 0 0 1
    outer loop
      vertex 33.7406 -17.2202 7
      vertex 29.4635 -15.4266 7
      vertex 33.4271 -17.7634 7
    endloop
  endfacet
  facet normal 0 0 1
    outer loop
      vertex 33.4271 -17.7634 7
      vertex 29.4635 -15.4266 7
      vertex 33.0074 -18.2294 7
    endloop
  endfacet
  facet normal 0 0 1
    outer loop
      vertex 33.0074 -18.2294 7
      vertex 29.4635 -15.4266 7
      vertex 32.5 -18.5981 7
    endloop
  endfacet
  facet normal 0 0 1
    outer loop
      vertex 32.5 -18.5981 7
      vertex 29.4635 -15.4266 7
      vertex 31.9271 -18.8532 7
    endloop
  endfacet
  facet normal 0 0 1
    outer loop
      vertex 31.3136 -18.9836 7
      vertex 29.4635 -15.4266 7
      vertex 30.99 -18.9836 7
    endloop
  endfacet
  facet normal 0 0 1
    outer loop
      vertex 31.9271 -18.8532 7
      vertex 29.4635 -15.4266 7
      vertex 31.3136 -18.9836 7
    endloop
  endfacet
  facet normal 0 0 1
    outer loop
      vertex 34 -9 7
      vertex 29.4635 -12.5734 7
      vertex 30.5 -14 7
    endloop
  endfacet
  facet normal 0 0 1
    outer loop
      vertex 22 -6.84828 7
      vertex 29.4635 -12.5734 7
      vertex 34 -9 7
    endloop
  endfacet
  facet normal 0 0 1
    outer loop
      vertex 27.7865 -13.1183 7
      vertex 24 -19 7
      vertex 27.7865 -14.8817 7
    endloop
  endfacet
  facet normal -0 0 1
    outer loop
      vertex 22 -6.84828 7
      vertex 34 -9 7
      vertex 39 -6.84828 7
    endloop
  endfacet
  facet normal 0 0 1
    outer loop
      vertex 29.4635 -12.5734 7
      vertex 22 -6.84828 7
      vertex 27.7865 -13.1183 7
    endloop
  endfacet
  facet normal 0 0 1
    outer loop
      vertex 22 -6.84828 7
      vertex 24 -19 7
      vertex 27.7865 -13.1183 7
    endloop
  endfacet
  facet normal 0 0 1
    outer loop
      vertex 22 -24 7
      vertex 24 -19 7
      vertex 22 -6.84828 7
    endloop
  endfacet
  facet normal 0 0 1
    outer loop
      vertex 24 -19 7
      vertex 22 -24 7
      vertex 24 -24 7
    endloop
  endfacet
  facet normal 0 0 1
    outer loop
      vertex 34 -16 7
      vertex 33.9989 -15.99 7
      vertex 33.9344 -16.6237 7
    endloop
  endfacet
  facet normal 0 0 1
    outer loop
      vertex 27.7865 -14.8817 7
      vertex 30.99 -18.9836 7
      vertex 29.4635 -15.4266 7
    endloop
  endfacet
  facet normal 0 0 1
    outer loop
      vertex 24 -19 7
      vertex 30.99 -18.9836 7
      vertex 27.7865 -14.8817 7
    endloop
  endfacet
  facet normal 0 0 1
    outer loop
      vertex 30.99 -18.9836 7
      vertex 24 -19 7
      vertex 30.99 -19 7
    endloop
  endfacet
endsolid OpenSCAD_Model
